<?xml version="1.0" encoding="utf-8"?>
<!-- Generator: Adobe Illustrator 23.0.0, SVG Export Plug-In . SVG Version: 6.00 Build 0)  -->
<svg version="1.1" id="Layer_1" xmlns="http://www.w3.org/2000/svg" xmlns:xlink="http://www.w3.org/1999/xlink" x="0px" y="0px"
	 viewBox="0 0 1920 1080" style="enable-background:new 0 0 1920 1080;" xml:space="preserve">
<style type="text/css">
	.st0{fill:none;}
	.st1{fill:#FAFBFC;}
	.st2{font-family:'MyriadPro-Regular';}
	.st3{font-size:18px;}
	.st4{fill:url(#SVGID_1_);}
	.st5{fill:url(#SVGID_2_);}
	.st6{fill:url(#SVGID_3_);}
	.st7{fill:url(#SVGID_4_);}
	.st8{fill:#FDFFFF;}
</style>
<g>
	
		<image style="overflow:visible;" width="1920" height="969" xlink:href="image/cleaner-3177074_1920 copy.jpg"  transform="matrix(1 0 0 1.1146 0 0)">
	</image>
	<g>
		<rect x="1159.7" y="65.2" class="st0" width="69.3" height="21.9"/>
		<text transform="matrix(1 0 0 1 1159.6777 78.0264)" class="st1 st2 st3">Branding</text>
		<rect x="1286.7" y="65.2" class="st0" width="47.3" height="14.9"/>
		<text transform="matrix(1 0 0 1 1286.6777 78.0264)" class="st1 st2 st3">About</text>
		<rect x="1391.7" y="65.2" class="st0" width="69.3" height="21.9"/>
		<text transform="matrix(1 0 0 1 1391.6777 78.0264)" class="st1 st2 st3">Portfolio</text>
		<rect x="1514.7" y="65.2" class="st0" width="87.3" height="14.9"/>
		<text transform="matrix(1 0 0 1 1514.6777 78.0264)" class="st1 st2 st3">Experience</text>
	</g>
	<g>
		<linearGradient id="SVGID_1_" gradientUnits="userSpaceOnUse" x1="342.5965" y1="46.3027" x2="353.0706" y2="84.6037">
			<stop  offset="0" style="stop-color:#6296A8"/>
			<stop  offset="1" style="stop-color:#203A43"/>
		</linearGradient>
		<path class="st4" d="M364.2,74.1c0-2.8-0.7-5.1-2.2-7c-1.8-2.3-4.7-4.1-8.7-5.6c-5.9-2.3-8.5-4.3-8.5-8.3c0-2.4,1.5-5.2,5.3-6.1
			c0.5-0.1,0.9-0.2,1.4-0.2c0.1,0,0.2,0,0.2,0c0,0,0,0,0,0c0.3,0,0.7,0,1,0c2.6,0,4.7,0.6,6.3,1.2c1,0.4,2.2-0.2,2.6-1.2l0.3-0.7
			c0.3-1-0.2-2.1-1.1-2.5c-1.9-0.7-4.5-1.3-7.8-1.3c-0.3,0-0.5,0-0.8,0c-0.3,0-0.6,0-0.9,0c-13.3,0-22.3,9.1-22.3,22.5c0,0,0,0,0,0
			c0,14,9.1,22.3,21.1,21.6c0,0,0.6,0,1.4-0.1c1.9-0.2,3.6-0.6,5-1.2c1.2-0.4,2.3-1.1,3.3-1.9c0,0,0,0,0,0
			C362.7,80.9,364.2,77.6,364.2,74.1z M334.8,64.8c0-0.1,0-0.1,0-0.2c0-5.5,1.6-9.5,4.4-12.4c-0.1,0.6-0.1,1.1-0.1,1.7
			c0,6,4.3,9.6,11.3,12.1c0.9,0.3,1.6,0.7,2.4,1c4,1.9,5.7,4.1,5.7,7.5c0,4.3-3.3,7.3-8.9,7.3c-0.3,0-0.5,0-0.8,0
			C340.7,81.3,334.9,74.2,334.8,64.8z"/>
		<linearGradient id="SVGID_2_" gradientUnits="userSpaceOnUse" x1="320.9676" y1="96.6694" x2="370.323" y2="96.6694">
			<stop  offset="0" style="stop-color:#6296A8"/>
			<stop  offset="1" style="stop-color:#203A43"/>
		</linearGradient>
		<path class="st5" d="M370.3,100.7c-6,2.3-11.8,1.9-17.7-0.2c-5-1.9-9.8-4.3-15-5.7c-5.3-1.4-10.6-2-15.7,0.6
			c-0.1,0.1-0.4,0-0.9-0.1c3.2-2.9,6.7-4.2,10.7-4.2c6-0.1,11.7,1.6,17.1,4.2c4.2,2,8.5,3.9,13.2,4.8
			C364.7,100.6,367.5,100.4,370.3,100.7z"/>
		<linearGradient id="SVGID_3_" gradientUnits="userSpaceOnUse" x1="361.6971" y1="85.1972" x2="376.8978" y2="85.1972">
			<stop  offset="0" style="stop-color:#6296A8"/>
			<stop  offset="8.338940e-02" style="stop-color:#558494"/>
			<stop  offset="0.2315" style="stop-color:#426977"/>
			<stop  offset="0.3891" style="stop-color:#335460"/>
			<stop  offset="0.5587" style="stop-color:#284550"/>
			<stop  offset="0.7484" style="stop-color:#223D46"/>
			<stop  offset="1" style="stop-color:#203A43"/>
		</linearGradient>
		<path class="st6" d="M360.8,91c3.1,0,6.2-0.1,9-1.8c1.7-1,2.9-2.4,2.8-4.5c-0.1-2-1.2-3.3-3-3.8c-1.5-0.4-2.7,0.2-3.5,1.4
			c-1.1,1.6-0.2,2.9,0.9,4.1c-2.1,0.3-3.7-1.8-3.2-4.2c0.4-2,1.5-3.4,3.5-4.1c2.3-0.8,4.4-0.3,6.2,1.3c3.7,3.2,3.3,8.8-0.9,11.4
			C368.8,93.2,364.8,93.1,360.8,91z"/>
		<linearGradient id="SVGID_4_" gradientUnits="userSpaceOnUse" x1="323.362" y1="89.8164" x2="376.3664" y2="89.8164">
			<stop  offset="0" style="stop-color:#6296A8"/>
			<stop  offset="1" style="stop-color:#203A43"/>
		</linearGradient>
		<path class="st7" d="M376,89.7c0,0-1.2,2.3-2.8,2.9s-6.1,4.1-17.9-2.2s-17.9-7.3-19.9-7.2s-6.2-0.1-8.7,2
			c-2.5,2.1-3.9,2.9-3.2,5.3c0,0,1.5-3.6,5.1-4.2c3.6-0.6,6.9-1,10.7,0.4c3.8,1.4,13.6,5.7,15,6.8c1.4,1.1,9.1,3.4,12.7,2.9
			s5.1-0.4,8.8-4.5C375.9,91.8,376.9,90.1,376,89.7z"/>
	</g>
	<path class="st8" d="M471.8,498.3c-14.4,0-26.3-3.3-36-9.8c-9.6-6.5-16.8-15.5-21.6-27.1c-4.8-11.6-7.2-25.1-7.2-40.5
		c0-15.5,2.4-29.2,7.3-40.9c4.9-11.7,12.3-20.9,22.3-27.5c10-6.6,22.5-9.9,37.7-9.9c9.1,0,16.7,1.1,22.9,3.4
		c6.2,2.3,10.9,5.2,14.2,8.9c3.3,3.7,4.9,7.7,4.9,12.1c0,4.8-1.7,8.4-5.2,10.7c-3.5,2.3-7.8,3.5-13,3.5c0-8.8-0.9-15.8-2.7-21.1
		c-1.8-5.3-4.7-9.1-8.6-11.6c-3.9-2.4-9-3.6-15.3-3.6c-9.8,0-17.7,2.8-23.8,8.5c-6.1,5.7-10.6,14-13.4,25.1
		c-2.8,11.1-4.2,24.8-4.2,41.2c0,17,1.5,31.1,4.5,42.4c3,11.3,7.7,19.8,14.2,25.4c6.5,5.7,14.9,8.5,25.4,8.5
		c9.5,0,17.1-2.4,22.9-7.3c5.8-4.9,10.1-12.8,13.1-23.6c1.8,0.7,3.1,1.7,4,3.1c0.8,1.3,1.3,3,1.3,5c0,2.7-0.9,5.5-2.7,8.4
		c-1.8,2.9-4.5,5.6-8.2,8.2c-3.6,2.5-8.2,4.6-13.6,6.1C485.6,497.5,479.2,498.3,471.8,498.3z"/>
	<path class="st8" d="M523.5,496.2V494h6.1c3.1,0,5.6-0.5,7.7-1.5c2.1-1,3.9-2.7,5.4-5.1c1.5-2.4,3-5.7,4.4-10l45.6-132.7h10.7
		l52.5,138c1.1,2.8,2.2,5.1,3.3,6.7c1.1,1.6,2.4,2.8,3.9,3.5c1.5,0.7,3.2,1.1,5.1,1.1h2.7v2.1h-57.5V494h4.8c5.3,0,9.1-0.6,11.5-1.9
		c2.4-1.3,3.6-3.5,3.6-6.8c0-0.8-0.1-1.7-0.2-2.7c-0.1-0.9-0.3-1.9-0.5-3.1c-0.2-1.1-0.6-2.3-1.1-3.6l-12.8-34.8h-56.7l-11.5,33.3
		c-0.4,1.1-0.8,2.3-1,3.4c-0.3,1.1-0.5,2.2-0.6,3.1c-0.1,0.9-0.2,1.8-0.2,2.7c0,3.8,1.7,6.5,5,8.1c3.3,1.6,8.7,2.3,16.1,2.3h4.8v2.1
		H523.5z M562.5,439.1h55.2l-15.3-41.3c-1.8-4.8-3.5-9.4-5-13.8c-1.5-4.4-3-8.6-4.3-12.6c-1.3-4-2.5-8-3.7-11.8
		c-1,3.1-1.9,6-2.7,8.6c-0.8,2.6-1.7,5.2-2.5,7.7c-0.8,2.5-1.8,5.3-2.8,8.2c-1,2.9-2.2,6.3-3.4,10.1L562.5,439.1z"/>
	<path class="st8" d="M678.8,496.2V494h2.7c3.8,0,6.9-0.6,9.5-1.7c2.6-1.1,4.5-2.8,5.7-5.1c1.3-2.3,1.9-5.1,1.9-8.5V361.3
		c0-3.3-0.6-5.9-1.9-8.1c-1.3-2.1-3.2-3.7-5.7-4.8c-2.6-1.1-5.7-1.6-9.5-1.6h-2.7v-2.1h60.8v2.1h-2.7c-3.8,0-6.9,0.6-9.5,1.7
		c-2.6,1.1-4.5,2.8-5.7,5.1c-1.3,2.3-1.9,5.1-1.9,8.5V494h38.7c7.4,0,13.3-1.1,17.7-3.3c4.4-2.2,7.6-6,9.7-11.3
		c2.1-5.4,3.4-12.6,4-21.8l0.4-7h2.1l-1.5,45.6H678.8z"/>
	<path class="st8" d="M809,496.2V494h8.2c3.8,0,6.9-0.6,9.5-1.7c2.6-1.1,4.5-2.8,5.7-5.1c1.3-2.3,1.9-5.1,1.9-8.5V361.3
		c0-3.3-0.6-5.9-1.9-8.1c-1.3-2.1-3.2-3.7-5.7-4.8c-2.6-1.1-5.7-1.6-9.5-1.6H809v-2.1h42.4l53.3,127.6L951,344.8h38.3v2.1h-2.7
		c-3.8,0-6.9,0.6-9.5,1.7c-2.6,1.1-4.5,2.8-5.7,5.1c-1.3,2.3-1.9,5.1-1.9,8.5v116.6c0,3.4,0.6,6.2,1.9,8.5c1.3,2.3,3.2,4,5.7,5.1
		c2.6,1.1,5.7,1.7,9.5,1.7h2.7v2.1h-55.6V494h0.6c3.1,0,5.7-0.6,7.9-1.7c2.2-1.1,4-2.8,5.2-5.1c1.3-2.3,1.9-5.1,1.9-8.5v-123
		l-50.8,140.3h-5l-57.1-137.6v120.2c0,3.4,0.6,6.2,1.9,8.5c1.3,2.3,3.2,4,5.7,5.1c2.6,1.1,5.7,1.7,9.5,1.7h3.8v2.1H809z"/>
	<path class="st8" d="M1135.6,498.3c-7.1,0-13.5-0.7-19.2-2.2c-5.7-1.5-10.5-3.5-14.5-6.1c-4-2.6-7-5.7-9-9.2c-2-3.5-3-7.4-3-11.7
		c0-3.3,0.6-6,1.9-8.2c1.2-2.2,3-3.8,5.3-5c2.3-1.1,5.2-1.7,8.5-1.7c0.1,9.2,1.3,16.9,3.6,23.2c2.2,6.3,5.7,11,10.3,14.1
		c4.6,3.1,10.5,4.7,17.6,4.7c9.3,0,16.8-2.7,22.5-8c5.7-5.3,8.6-13.1,8.6-23.4c0-6.4-1.2-11.5-3.6-15.5c-2.4-4-6.2-7.5-11.5-10.7
		c-5.3-3.2-12.2-6.7-20.8-10.5c-4.5-2.1-9.1-4.4-13.8-6.9c-4.7-2.5-9.1-5.4-13.1-8.9c-4-3.5-7.2-7.7-9.6-12.7
		c-2.4-5-3.6-11-3.6-17.9c0-8.5,1.9-15.6,5.7-21.4c3.8-5.8,9.1-10.2,16-13.1c6.9-3,15-4.5,24.3-4.5c8.6,0,16,1.1,22.3,3.4
		c6.3,2.3,11.2,5.2,14.8,8.9c3.6,3.7,5.3,7.7,5.3,12.1c0,4.1-1.6,7.3-4.8,9.6c-3.2,2.3-7.3,3.5-12.4,3.5c0-11.7-2-20.6-5.9-26.5
		c-3.9-5.9-10.4-8.9-19.6-8.9c-5.5,0-10.4,1.1-14.6,3.3c-4.2,2.2-7.4,5.4-9.7,9.8c-2.3,4.3-3.4,9.7-3.4,16.2
		c0,6.9,1.3,12.5,3.9,16.7c2.6,4.2,6.6,7.9,11.9,10.9c5.3,3,11.9,6.4,19.9,10.1c7.3,3.3,14,6.6,20.1,10.2c6.2,3.5,11.1,8,14.9,13.4
		c3.8,5.4,5.7,12.4,5.7,21.2c0,8.6-2,16-6,22.3c-4,6.2-9.8,11-17.4,14.4C1155.7,496.6,1146.4,498.3,1135.6,498.3z"/>
	<path class="st8" d="M1213.1,496.2V494h2.8c3.9,0,7.2-0.6,9.9-1.7c2.7-1.1,4.7-2.8,6-5.1c1.3-2.3,2-5.1,2-8.5V361.3
		c0-3.3-0.7-5.9-2-8.1c-1.3-2.1-3.3-3.7-6-4.8c-2.7-1.1-6-1.6-9.9-1.6h-2.8v-2.1h109.5l1.3,37.1h-2.2l-0.4-7
		c-0.4-7.1-1.7-12.6-3.7-16.7c-2-4.1-5.2-7-9.5-8.7c-4.3-1.7-10.1-2.5-17.5-2.5h-34.8v68.9h54.6v2.1h-54.6V494h40.3
		c7.8,0,14.1-0.8,18.7-2.5c4.6-1.7,8-4.6,10.1-8.7c2.1-4.1,3.4-9.7,3.8-16.7l0.4-7h2.2l-1.5,37.1H1213.1z"/>
	<path class="st8" d="M1359.4,496.2V494h6.3c3.2,0,5.9-0.5,8.1-1.5c2.2-1,4.1-2.7,5.7-5.1c1.6-2.4,3.1-5.7,4.6-10l47.5-132.7h11.1
		l54.6,138c1.2,2.8,2.3,5.1,3.5,6.7c1.2,1.6,2.5,2.8,4,3.5c1.5,0.7,3.3,1.1,5.3,1.1h2.8v2.1H1453V494h5c5.5,0,9.5-0.6,12-1.9
		c2.5-1.3,3.7-3.5,3.7-6.8c0-0.8-0.1-1.7-0.2-2.7c-0.1-0.9-0.3-1.9-0.5-3.1c-0.2-1.1-0.6-2.3-1.2-3.6l-13.3-34.8h-59l-12,33.3
		c-0.4,1.1-0.8,2.3-1.1,3.4c-0.3,1.1-0.5,2.2-0.7,3.1c-0.1,0.9-0.2,1.8-0.2,2.7c0,3.8,1.7,6.5,5.2,8.1c3.5,1.6,9.1,2.3,16.8,2.3h5
		v2.1H1359.4z M1400.1,439.1h57.5l-15.9-41.3c-1.9-4.8-3.6-9.4-5.2-13.8c-1.6-4.4-3.1-8.6-4.5-12.6c-1.4-4-2.7-8-3.8-11.8
		c-1,3.1-2,6-2.8,8.6c-0.9,2.6-1.7,5.2-2.6,7.7c-0.9,2.5-1.9,5.3-2.9,8.2c-1.1,2.9-2.3,6.3-3.6,10.1L1400.1,439.1z"/>
</g>
</svg>
