<svg width="1920" height="1080" viewBox="0 0 1920 1080" fill="none" xmlns="http://www.w3.org/2000/svg">
<rect width="1920" height="1080" fill="#222222"/>
<g filter="url(#filter0_d_144:1050)">
<rect x="1040" y="325" width="559" height="500" rx="34" fill="url(#paint0_linear_144:1050)"/>
<path d="M1360.52 629.054C1349.19 633.284 1338.1 632.68 1327 628.601C1317.51 625.126 1308.4 620.519 1298.45 617.951C1288.35 615.382 1278.4 614.249 1268.68 619.084C1268.45 619.235 1267.99 619.008 1267 618.857C1272.97 613.343 1279.78 611.077 1287.28 610.926C1298.76 610.624 1309.4 613.947 1319.58 618.706C1327.61 622.483 1335.72 626.033 1344.6 627.77C1349.88 628.903 1355.24 628.525 1360.52 629.054Z" fill="white"/>
<path d="M1342.54 610.926C1348.5 611.001 1354.32 610.775 1359.52 607.602C1362.74 605.714 1365.11 603.146 1364.81 599.142C1364.58 595.441 1362.59 593.024 1359.07 591.967C1356.23 591.136 1354.01 592.42 1352.48 594.686C1350.34 597.707 1352.1 600.124 1354.24 602.39C1350.34 602.919 1347.28 599.067 1348.12 594.61C1348.81 590.833 1351.03 588.265 1354.7 586.981C1359.07 585.395 1363.05 586.452 1366.41 589.323C1373.38 595.366 1372.61 605.714 1364.81 610.624C1357.61 615.005 1350.04 614.854 1342.54 610.926Z" fill="white"/>
<path d="M1371.31 608.509C1371.31 608.509 1369.09 612.89 1366.11 613.947C1363.12 615.005 1354.47 621.652 1332.2 609.793C1309.93 597.934 1298.22 596.121 1294.47 596.272C1290.72 596.423 1282.69 596.045 1277.94 600.049C1273.2 603.977 1270.6 605.487 1271.9 610.019C1271.9 610.019 1274.65 603.221 1281.54 602.088C1288.43 600.955 1294.63 600.275 1301.9 602.919C1309.17 605.487 1327.69 613.57 1330.29 615.609C1332.89 617.648 1347.51 622.029 1354.32 620.972C1361.13 619.914 1364.04 620.141 1371.01 612.512C1371.01 612.436 1373 609.188 1371.31 608.509Z" fill="white"/>
<path d="M1352.03 579.201C1352.03 573.914 1350.57 569.684 1347.82 566.209C1344.37 561.904 1338.86 558.58 1331.29 555.71C1320.11 551.48 1315.21 547.779 1315.21 540.301C1315.21 535.769 1318.12 530.557 1325.32 528.895C1326.23 528.744 1327.08 528.593 1327.99 528.442C1328.15 528.442 1328.3 528.366 1328.45 528.366H1328.53C1329.14 528.291 1329.83 528.291 1330.52 528.291C1335.42 528.291 1339.47 529.348 1342.38 530.481C1344.37 531.237 1346.59 530.179 1347.28 528.14L1347.74 526.78C1348.35 524.892 1347.43 522.928 1345.6 522.172C1341.92 520.813 1337.03 519.755 1330.83 519.755C1330.29 519.755 1329.83 519.755 1329.3 519.755C1328.76 519.755 1328.22 519.755 1327.69 519.755C1302.59 519.755 1285.37 536.751 1285.37 561.753C1285.37 587.963 1302.59 603.523 1325.39 602.239C1325.39 602.239 1326.46 602.239 1328.07 602.013C1331.67 601.635 1334.81 600.88 1337.64 599.822C1339.86 598.991 1342 597.858 1343.84 596.348C1349.27 592.042 1352.03 585.848 1352.03 579.201ZM1296.46 561.753C1296.46 561.602 1296.46 561.526 1296.46 561.375C1296.46 551.027 1299.53 543.549 1304.88 538.261C1304.73 539.319 1304.65 540.376 1304.65 541.434C1304.65 552.688 1312.84 559.487 1326.08 564.094C1327.69 564.699 1329.22 565.378 1330.52 565.983C1338.17 569.608 1341.31 573.612 1341.31 580.032C1341.31 588.114 1335.04 593.704 1324.32 593.704C1323.86 593.704 1323.33 593.704 1322.87 593.628C1307.48 592.722 1296.54 579.428 1296.46 561.753Z" fill="white"/>
</g>
<path d="M1158.16 78.6265V65.8296H1162.35C1163.74 65.8296 1164.78 66.1167 1165.48 66.6909C1166.18 67.2651 1166.53 68.1147 1166.53 69.2397C1166.53 69.8374 1166.36 70.3677 1166.02 70.8306C1165.68 71.2876 1165.22 71.6421 1164.63 71.894C1165.32 72.0874 1165.87 72.4565 1166.27 73.0015C1166.67 73.5405 1166.87 74.1851 1166.87 74.9351C1166.87 76.0835 1166.5 76.9858 1165.76 77.6421C1165.01 78.2983 1163.96 78.6265 1162.6 78.6265H1158.16ZM1159.85 72.6411V77.2466H1162.64C1163.42 77.2466 1164.04 77.0444 1164.49 76.6401C1164.95 76.23 1165.18 75.6675 1165.18 74.9526C1165.18 73.4116 1164.34 72.6411 1162.66 72.6411H1159.85ZM1159.85 71.2876H1162.4C1163.14 71.2876 1163.73 71.103 1164.17 70.7339C1164.61 70.3647 1164.83 69.8638 1164.83 69.231C1164.83 68.5278 1164.63 68.0181 1164.22 67.7017C1163.81 67.3794 1163.18 67.2183 1162.35 67.2183H1159.85V71.2876ZM1173.72 70.5757C1173.47 70.5347 1173.21 70.5142 1172.92 70.5142C1171.85 70.5142 1171.13 70.9683 1170.75 71.8765V78.6265H1169.12V69.1167H1170.71L1170.73 70.2153C1171.26 69.3657 1172.02 68.9409 1173 68.9409C1173.32 68.9409 1173.56 68.9819 1173.72 69.064V70.5757ZM1180.74 78.6265C1180.65 78.439 1180.57 78.105 1180.51 77.6245C1179.76 78.4097 1178.86 78.8022 1177.81 78.8022C1176.87 78.8022 1176.1 78.5386 1175.5 78.0112C1174.9 77.478 1174.6 76.8042 1174.6 75.9897C1174.6 74.9995 1174.97 74.2319 1175.72 73.687C1176.48 73.1362 1177.54 72.8608 1178.91 72.8608H1180.49V72.1138C1180.49 71.5454 1180.32 71.0942 1179.98 70.7603C1179.64 70.4204 1179.14 70.2505 1178.47 70.2505C1177.89 70.2505 1177.41 70.397 1177.02 70.6899C1176.62 70.9829 1176.43 71.3374 1176.43 71.7534H1174.79C1174.79 71.2788 1174.96 70.8218 1175.29 70.3823C1175.63 69.937 1176.09 69.5854 1176.66 69.3276C1177.24 69.0698 1177.88 68.9409 1178.57 68.9409C1179.67 68.9409 1180.53 69.2163 1181.15 69.7671C1181.77 70.312 1182.09 71.0649 1182.11 72.0259V76.4028C1182.11 77.2759 1182.22 77.9702 1182.45 78.4858V78.6265H1180.74ZM1178.04 77.3872C1178.55 77.3872 1179.04 77.2554 1179.49 76.9917C1179.95 76.728 1180.28 76.3853 1180.49 75.9634V74.0122H1179.21C1177.22 74.0122 1176.22 74.5952 1176.22 75.7612C1176.22 76.271 1176.39 76.6694 1176.73 76.9565C1177.07 77.2437 1177.51 77.3872 1178.04 77.3872ZM1186.2 69.1167L1186.25 70.312C1186.98 69.3979 1187.93 68.9409 1189.1 68.9409C1191.11 68.9409 1192.12 70.0747 1192.14 72.3423V78.6265H1190.52V72.3335C1190.51 71.6479 1190.35 71.1411 1190.04 70.813C1189.74 70.4849 1189.26 70.3208 1188.61 70.3208C1188.08 70.3208 1187.62 70.4614 1187.22 70.7427C1186.82 71.0239 1186.51 71.3931 1186.29 71.8501V78.6265H1184.66V69.1167H1186.2ZM1194.2 73.7925C1194.2 72.3335 1194.54 71.1616 1195.24 70.2769C1195.93 69.3862 1196.83 68.9409 1197.95 68.9409C1199.06 68.9409 1199.95 69.3218 1200.6 70.0835V65.1265H1202.22V78.6265H1200.73L1200.65 77.6069C1200 78.4038 1199.09 78.8022 1197.93 78.8022C1196.83 78.8022 1195.93 78.3511 1195.24 77.4487C1194.54 76.5464 1194.2 75.3687 1194.2 73.9155V73.7925ZM1195.82 73.9771C1195.82 75.0552 1196.05 75.8989 1196.49 76.5083C1196.94 77.1177 1197.55 77.4224 1198.34 77.4224C1199.37 77.4224 1200.12 76.9595 1200.6 76.0337V71.6655C1200.11 70.769 1199.36 70.3208 1198.36 70.3208C1197.56 70.3208 1196.94 70.6284 1196.49 71.2437C1196.05 71.8589 1195.82 72.77 1195.82 73.9771ZM1206.52 78.6265H1204.89V69.1167H1206.52V78.6265ZM1204.76 66.5942C1204.76 66.3306 1204.84 66.1079 1205 65.9263C1205.16 65.7446 1205.4 65.6538 1205.72 65.6538C1206.04 65.6538 1206.28 65.7446 1206.44 65.9263C1206.61 66.1079 1206.69 66.3306 1206.69 66.5942C1206.69 66.8579 1206.61 67.0776 1206.44 67.2534C1206.28 67.4292 1206.04 67.5171 1205.72 67.5171C1205.4 67.5171 1205.16 67.4292 1205 67.2534C1204.84 67.0776 1204.76 66.8579 1204.76 66.5942ZM1210.67 69.1167L1210.72 70.312C1211.45 69.3979 1212.4 68.9409 1213.57 68.9409C1215.58 68.9409 1216.59 70.0747 1216.61 72.3423V78.6265H1214.98V72.3335C1214.98 71.6479 1214.82 71.1411 1214.51 70.813C1214.21 70.4849 1213.73 70.3208 1213.08 70.3208C1212.55 70.3208 1212.09 70.4614 1211.69 70.7427C1211.29 71.0239 1210.98 71.3931 1210.76 71.8501V78.6265H1209.13V69.1167H1210.67ZM1218.68 73.7925C1218.68 72.3101 1219.02 71.1323 1219.7 70.2593C1220.39 69.3804 1221.3 68.9409 1222.43 68.9409C1223.59 68.9409 1224.49 69.3511 1225.14 70.1714L1225.22 69.1167H1226.71V78.3979C1226.71 79.6284 1226.34 80.5981 1225.61 81.3071C1224.88 82.0161 1223.91 82.3706 1222.67 82.3706C1221.99 82.3706 1221.32 82.2241 1220.66 81.9312C1220.01 81.6382 1219.5 81.2368 1219.16 80.7271L1220 79.7515C1220.7 80.6128 1221.55 81.0435 1222.56 81.0435C1223.35 81.0435 1223.97 80.8208 1224.41 80.3755C1224.85 79.9302 1225.07 79.3032 1225.07 78.4946V77.6772C1224.42 78.4272 1223.54 78.8022 1222.41 78.8022C1221.3 78.8022 1220.4 78.354 1219.7 77.4575C1219.02 76.561 1218.68 75.3394 1218.68 73.7925ZM1220.31 73.9771C1220.31 75.0493 1220.53 75.8931 1220.97 76.5083C1221.41 77.1177 1222.02 77.4224 1222.82 77.4224C1223.84 77.4224 1224.59 76.9565 1225.07 76.0249V71.6831C1224.58 70.7749 1223.83 70.3208 1222.83 70.3208C1222.04 70.3208 1221.42 70.6284 1220.98 71.2437C1220.53 71.8589 1220.31 72.77 1220.31 73.9771Z" fill="#FAFBFC"/>
<path d="M1292.23 75.2866H1286.87L1285.66 78.6265H1283.92L1288.81 65.8296H1290.29L1295.18 78.6265H1293.45L1292.23 75.2866ZM1287.38 73.8979H1291.73L1289.55 67.9126L1287.38 73.8979ZM1304.7 73.9771C1304.7 75.4302 1304.37 76.5991 1303.7 77.4839C1303.03 78.3628 1302.13 78.8022 1301.01 78.8022C1299.81 78.8022 1298.88 78.3774 1298.22 77.5278L1298.14 78.6265H1296.65V65.1265H1298.28V70.1626C1298.93 69.3481 1299.84 68.9409 1300.99 68.9409C1302.15 68.9409 1303.05 69.3774 1303.71 70.2505C1304.37 71.1235 1304.7 72.3188 1304.7 73.8364V73.9771ZM1303.08 73.7925C1303.08 72.6851 1302.86 71.8296 1302.43 71.2261C1302.01 70.6226 1301.39 70.3208 1300.59 70.3208C1299.52 70.3208 1298.75 70.8188 1298.28 71.8149V75.9282C1298.77 76.9243 1299.55 77.4224 1300.61 77.4224C1301.38 77.4224 1301.99 77.1206 1302.42 76.5171C1302.86 75.9136 1303.08 75.0054 1303.08 73.7925ZM1306.33 73.7837C1306.33 72.8521 1306.51 72.0142 1306.87 71.27C1307.24 70.5259 1307.75 69.9517 1308.4 69.5474C1309.06 69.1431 1309.8 68.9409 1310.64 68.9409C1311.94 68.9409 1312.98 69.3892 1313.78 70.2856C1314.58 71.1821 1314.98 72.3745 1314.98 73.8628V73.9771C1314.98 74.9028 1314.81 75.7349 1314.45 76.4731C1314.1 77.2056 1313.59 77.7769 1312.93 78.187C1312.27 78.5972 1311.52 78.8022 1310.66 78.8022C1309.37 78.8022 1308.33 78.354 1307.52 77.4575C1306.73 76.561 1306.33 75.3745 1306.33 73.8979V73.7837ZM1307.96 73.9771C1307.96 75.0317 1308.21 75.8784 1308.69 76.5171C1309.18 77.1558 1309.84 77.4751 1310.66 77.4751C1311.49 77.4751 1312.14 77.1528 1312.63 76.5083C1313.12 75.8579 1313.36 74.9497 1313.36 73.7837C1313.36 72.7407 1313.11 71.897 1312.61 71.2524C1312.12 70.6021 1311.46 70.2769 1310.64 70.2769C1309.84 70.2769 1309.19 70.5962 1308.7 71.2349C1308.21 71.8735 1307.96 72.7876 1307.96 73.9771ZM1322.89 77.686C1322.26 78.4302 1321.33 78.8022 1320.11 78.8022C1319.09 78.8022 1318.32 78.5093 1317.79 77.9233C1317.26 77.3315 1316.99 76.4585 1316.99 75.3042V69.1167H1318.61V75.2603C1318.61 76.7017 1319.2 77.4224 1320.37 77.4224C1321.61 77.4224 1322.44 76.9595 1322.85 76.0337V69.1167H1324.48V78.6265H1322.93L1322.89 77.686ZM1329.16 66.814V69.1167H1330.94V70.3735H1329.16V76.271C1329.16 76.6519 1329.24 76.939 1329.4 77.1323C1329.56 77.3198 1329.83 77.4136 1330.21 77.4136C1330.39 77.4136 1330.65 77.3784 1330.98 77.3081V78.6265C1330.55 78.7437 1330.14 78.8022 1329.73 78.8022C1329.01 78.8022 1328.46 78.5825 1328.09 78.1431C1327.72 77.7036 1327.54 77.0796 1327.54 76.271V70.3735H1325.8V69.1167H1327.54V66.814H1329.16Z" fill="#FAFBFC"/>
<path d="M1391.85 73.6167V78.6265H1390.16V65.8296H1394.88C1396.28 65.8296 1397.38 66.187 1398.17 66.9019C1398.97 67.6167 1399.37 68.563 1399.37 69.7407C1399.37 70.9829 1398.98 71.9409 1398.2 72.6147C1397.42 73.2827 1396.31 73.6167 1394.87 73.6167H1391.85ZM1391.85 72.2368H1394.88C1395.79 72.2368 1396.48 72.0259 1396.96 71.604C1397.44 71.1763 1397.68 70.561 1397.68 69.7583C1397.68 68.9966 1397.44 68.3872 1396.96 67.9302C1396.48 67.4731 1395.82 67.2358 1394.98 67.2183H1391.85V72.2368ZM1400.71 73.7837C1400.71 72.8521 1400.89 72.0142 1401.25 71.27C1401.62 70.5259 1402.13 69.9517 1402.78 69.5474C1403.44 69.1431 1404.19 68.9409 1405.03 68.9409C1406.32 68.9409 1407.37 69.3892 1408.16 70.2856C1408.97 71.1821 1409.37 72.3745 1409.37 73.8628V73.9771C1409.37 74.9028 1409.19 75.7349 1408.83 76.4731C1408.48 77.2056 1407.97 77.7769 1407.31 78.187C1406.65 78.5972 1405.9 78.8022 1405.04 78.8022C1403.75 78.8022 1402.71 78.354 1401.91 77.4575C1401.11 76.561 1400.71 75.3745 1400.71 73.8979V73.7837ZM1402.34 73.9771C1402.34 75.0317 1402.59 75.8784 1403.07 76.5171C1403.57 77.1558 1404.22 77.4751 1405.04 77.4751C1405.87 77.4751 1406.53 77.1528 1407.01 76.5083C1407.5 75.8579 1407.74 74.9497 1407.74 73.7837C1407.74 72.7407 1407.49 71.897 1406.99 71.2524C1406.5 70.6021 1405.85 70.2769 1405.03 70.2769C1404.22 70.2769 1403.58 70.5962 1403.08 71.2349C1402.59 71.8735 1402.34 72.7876 1402.34 73.9771ZM1416 70.5757C1415.76 70.5347 1415.49 70.5142 1415.2 70.5142C1414.14 70.5142 1413.41 70.9683 1413.03 71.8765V78.6265H1411.41V69.1167H1412.99L1413.01 70.2153C1413.55 69.3657 1414.3 68.9409 1415.28 68.9409C1415.6 68.9409 1415.84 68.9819 1416 69.064V70.5757ZM1420.15 66.814V69.1167H1421.93V70.3735H1420.15V76.271C1420.15 76.6519 1420.23 76.939 1420.39 77.1323C1420.55 77.3198 1420.82 77.4136 1421.2 77.4136C1421.38 77.4136 1421.64 77.3784 1421.97 77.3081V78.6265C1421.54 78.7437 1421.13 78.8022 1420.72 78.8022C1420 78.8022 1419.45 78.5825 1419.08 78.1431C1418.71 77.7036 1418.53 77.0796 1418.53 76.271V70.3735H1416.79V69.1167H1418.53V66.814H1420.15ZM1424.63 78.6265V70.3735H1423.13V69.1167H1424.63V68.1411C1424.63 67.1216 1424.91 66.3335 1425.45 65.7769C1426 65.2202 1426.77 64.9419 1427.76 64.9419C1428.14 64.9419 1428.51 64.9917 1428.88 65.0913L1428.79 66.4097C1428.52 66.3569 1428.22 66.3306 1427.91 66.3306C1427.38 66.3306 1426.98 66.4858 1426.69 66.7964C1426.4 67.1011 1426.26 67.5405 1426.26 68.1147V69.1167H1428.29V70.3735H1426.26V78.6265H1424.63ZM1429.66 73.7837C1429.66 72.8521 1429.84 72.0142 1430.21 71.27C1430.58 70.5259 1431.08 69.9517 1431.74 69.5474C1432.39 69.1431 1433.14 68.9409 1433.98 68.9409C1435.27 68.9409 1436.32 69.3892 1437.11 70.2856C1437.92 71.1821 1438.32 72.3745 1438.32 73.8628V73.9771C1438.32 74.9028 1438.14 75.7349 1437.78 76.4731C1437.43 77.2056 1436.92 77.7769 1436.26 78.187C1435.61 78.5972 1434.85 78.8022 1433.99 78.8022C1432.71 78.8022 1431.66 78.354 1430.86 77.4575C1430.06 76.561 1429.66 75.3745 1429.66 73.8979V73.7837ZM1431.3 73.9771C1431.3 75.0317 1431.54 75.8784 1432.03 76.5171C1432.52 77.1558 1433.17 77.4751 1433.99 77.4751C1434.82 77.4751 1435.48 77.1528 1435.96 76.5083C1436.45 75.8579 1436.69 74.9497 1436.69 73.7837C1436.69 72.7407 1436.44 71.897 1435.95 71.2524C1435.45 70.6021 1434.8 70.2769 1433.98 70.2769C1433.17 70.2769 1432.53 70.5962 1432.03 71.2349C1431.54 71.8735 1431.3 72.7876 1431.3 73.9771ZM1442.12 78.6265H1440.5V65.1265H1442.12V78.6265ZM1446.5 78.6265H1444.88V69.1167H1446.5V78.6265ZM1444.74 66.5942C1444.74 66.3306 1444.82 66.1079 1444.98 65.9263C1445.14 65.7446 1445.38 65.6538 1445.7 65.6538C1446.02 65.6538 1446.26 65.7446 1446.42 65.9263C1446.59 66.1079 1446.67 66.3306 1446.67 66.5942C1446.67 66.8579 1446.59 67.0776 1446.42 67.2534C1446.26 67.4292 1446.02 67.5171 1445.7 67.5171C1445.38 67.5171 1445.14 67.4292 1444.98 67.2534C1444.82 67.0776 1444.74 66.8579 1444.74 66.5942ZM1448.68 73.7837C1448.68 72.8521 1448.86 72.0142 1449.23 71.27C1449.59 70.5259 1450.1 69.9517 1450.75 69.5474C1451.41 69.1431 1452.16 68.9409 1453 68.9409C1454.29 68.9409 1455.34 69.3892 1456.13 70.2856C1456.94 71.1821 1457.34 72.3745 1457.34 73.8628V73.9771C1457.34 74.9028 1457.16 75.7349 1456.8 76.4731C1456.45 77.2056 1455.94 77.7769 1455.28 78.187C1454.62 78.5972 1453.87 78.8022 1453.01 78.8022C1451.72 78.8022 1450.68 78.354 1449.88 77.4575C1449.08 76.561 1448.68 75.3745 1448.68 73.8979V73.7837ZM1450.32 73.9771C1450.32 75.0317 1450.56 75.8784 1451.04 76.5171C1451.54 77.1558 1452.19 77.4751 1453.01 77.4751C1453.84 77.4751 1454.5 77.1528 1454.98 76.5083C1455.47 75.8579 1455.71 74.9497 1455.71 73.7837C1455.71 72.7407 1455.46 71.897 1454.96 71.2524C1454.47 70.6021 1453.82 70.2769 1453 70.2769C1452.19 70.2769 1451.55 70.5962 1451.05 71.2349C1450.56 71.8735 1450.32 72.7876 1450.32 73.9771Z" fill="#FAFBFC"/>
<path d="M1520.4 72.7114H1514.85V77.2466H1521.29V78.6265H1513.16V65.8296H1521.21V67.2183H1514.85V71.3315H1520.4V72.7114ZM1526.33 72.5884L1528.44 69.1167H1530.34L1527.23 73.8188L1530.43 78.6265H1528.55L1526.36 75.0669L1524.16 78.6265H1522.27L1525.48 73.8188L1522.37 69.1167H1524.25L1526.33 72.5884ZM1540.1 73.9771C1540.1 75.4243 1539.77 76.5903 1539.11 77.4751C1538.45 78.3599 1537.55 78.8022 1536.42 78.8022C1535.26 78.8022 1534.36 78.436 1533.69 77.7036V82.2827H1532.07V69.1167H1533.55L1533.63 70.1714C1534.29 69.3511 1535.21 68.9409 1536.39 68.9409C1537.54 68.9409 1538.44 69.3716 1539.1 70.2329C1539.77 71.0942 1540.1 72.2925 1540.1 73.8276V73.9771ZM1538.48 73.7925C1538.48 72.7202 1538.25 71.8735 1537.79 71.2524C1537.33 70.6313 1536.71 70.3208 1535.91 70.3208C1534.92 70.3208 1534.19 70.7573 1533.69 71.6304V76.1743C1534.18 77.0415 1534.92 77.4751 1535.93 77.4751C1536.71 77.4751 1537.32 77.1675 1537.78 76.5522C1538.24 75.9312 1538.48 75.0112 1538.48 73.7925ZM1546.12 78.8022C1544.83 78.8022 1543.78 78.3804 1542.98 77.5366C1542.17 76.687 1541.76 75.5532 1541.76 74.1353V73.8364C1541.76 72.8931 1541.94 72.0522 1542.3 71.314C1542.66 70.5698 1543.17 69.9897 1543.81 69.5737C1544.46 69.1519 1545.16 68.9409 1545.92 68.9409C1547.16 68.9409 1548.12 69.3481 1548.8 70.1626C1549.49 70.9771 1549.83 72.1431 1549.83 73.6606V74.3374H1543.39C1543.41 75.2749 1543.68 76.0337 1544.21 76.6138C1544.73 77.188 1545.4 77.4751 1546.21 77.4751C1546.78 77.4751 1547.27 77.3579 1547.67 77.1235C1548.07 76.8892 1548.42 76.5786 1548.71 76.1919L1549.71 76.9653C1548.91 78.1899 1547.72 78.8022 1546.12 78.8022ZM1545.92 70.2769C1545.26 70.2769 1544.71 70.5171 1544.27 70.9976C1543.82 71.4722 1543.55 72.1401 1543.44 73.0015H1548.21V72.8784C1548.16 72.0522 1547.94 71.4136 1547.54 70.9624C1547.14 70.5054 1546.6 70.2769 1545.92 70.2769ZM1556.32 70.5757C1556.07 70.5347 1555.8 70.5142 1555.52 70.5142C1554.45 70.5142 1553.73 70.9683 1553.35 71.8765V78.6265H1551.72V69.1167H1553.3L1553.33 70.2153C1553.86 69.3657 1554.62 68.9409 1555.6 68.9409C1555.91 68.9409 1556.15 68.9819 1556.32 69.064V70.5757ZM1559.59 78.6265H1557.96V69.1167H1559.59V78.6265ZM1557.83 66.5942C1557.83 66.3306 1557.91 66.1079 1558.07 65.9263C1558.23 65.7446 1558.47 65.6538 1558.79 65.6538C1559.1 65.6538 1559.34 65.7446 1559.51 65.9263C1559.67 66.1079 1559.75 66.3306 1559.75 66.5942C1559.75 66.8579 1559.67 67.0776 1559.51 67.2534C1559.34 67.4292 1559.1 67.5171 1558.79 67.5171C1558.47 67.5171 1558.23 67.4292 1558.07 67.2534C1557.91 67.0776 1557.83 66.8579 1557.83 66.5942ZM1566.14 78.8022C1564.85 78.8022 1563.81 78.3804 1563 77.5366C1562.19 76.687 1561.78 75.5532 1561.78 74.1353V73.8364C1561.78 72.8931 1561.96 72.0522 1562.32 71.314C1562.68 70.5698 1563.19 69.9897 1563.83 69.5737C1564.48 69.1519 1565.19 68.9409 1565.94 68.9409C1567.18 68.9409 1568.14 69.3481 1568.82 70.1626C1569.51 70.9771 1569.85 72.1431 1569.85 73.6606V74.3374H1563.41C1563.43 75.2749 1563.71 76.0337 1564.23 76.6138C1564.75 77.188 1565.42 77.4751 1566.23 77.4751C1566.81 77.4751 1567.29 77.3579 1567.69 77.1235C1568.09 76.8892 1568.44 76.5786 1568.74 76.1919L1569.73 76.9653C1568.93 78.1899 1567.74 78.8022 1566.14 78.8022ZM1565.94 70.2769C1565.29 70.2769 1564.73 70.5171 1564.29 70.9976C1563.84 71.4722 1563.57 72.1401 1563.46 73.0015H1568.23V72.8784C1568.18 72.0522 1567.96 71.4136 1567.56 70.9624C1567.16 70.5054 1566.62 70.2769 1565.94 70.2769ZM1573.28 69.1167L1573.33 70.312C1574.06 69.3979 1575.01 68.9409 1576.18 68.9409C1578.19 68.9409 1579.2 70.0747 1579.22 72.3423V78.6265H1577.6V72.3335C1577.59 71.6479 1577.43 71.1411 1577.12 70.813C1576.82 70.4849 1576.34 70.3208 1575.69 70.3208C1575.16 70.3208 1574.7 70.4614 1574.3 70.7427C1573.9 71.0239 1573.59 71.3931 1573.37 71.8501V78.6265H1571.74V69.1167H1573.28ZM1585.49 77.4751C1586.07 77.4751 1586.58 77.2993 1587.01 76.9478C1587.44 76.5962 1587.68 76.1567 1587.73 75.6294H1589.27C1589.24 76.1743 1589.05 76.6929 1588.71 77.1851C1588.36 77.6772 1587.9 78.0698 1587.32 78.3628C1586.74 78.6558 1586.13 78.8022 1585.49 78.8022C1584.19 78.8022 1583.16 78.3716 1582.39 77.5103C1581.63 76.6431 1581.25 75.4595 1581.25 73.9595V73.687C1581.25 72.7612 1581.42 71.938 1581.76 71.2173C1582.1 70.4966 1582.59 69.937 1583.22 69.5386C1583.86 69.1401 1584.61 68.9409 1585.48 68.9409C1586.55 68.9409 1587.43 69.2603 1588.13 69.8989C1588.84 70.5376 1589.22 71.3667 1589.27 72.3862H1587.73C1587.68 71.771 1587.45 71.2671 1587.03 70.8745C1586.61 70.4761 1586.09 70.2769 1585.48 70.2769C1584.65 70.2769 1584.01 70.5757 1583.55 71.1733C1583.1 71.7651 1582.88 72.6235 1582.88 73.7485V74.0562C1582.88 75.1519 1583.1 75.9956 1583.55 76.5874C1584.01 77.1792 1584.65 77.4751 1585.49 77.4751ZM1595.04 78.8022C1593.75 78.8022 1592.7 78.3804 1591.9 77.5366C1591.09 76.687 1590.68 75.5532 1590.68 74.1353V73.8364C1590.68 72.8931 1590.86 72.0522 1591.22 71.314C1591.58 70.5698 1592.09 69.9897 1592.73 69.5737C1593.38 69.1519 1594.08 68.9409 1594.84 68.9409C1596.08 68.9409 1597.04 69.3481 1597.72 70.1626C1598.41 70.9771 1598.75 72.1431 1598.75 73.6606V74.3374H1592.31C1592.33 75.2749 1592.6 76.0337 1593.13 76.6138C1593.65 77.188 1594.32 77.4751 1595.13 77.4751C1595.7 77.4751 1596.19 77.3579 1596.59 77.1235C1596.99 76.8892 1597.34 76.5786 1597.63 76.1919L1598.63 76.9653C1597.83 78.1899 1596.64 78.8022 1595.04 78.8022ZM1594.84 70.2769C1594.18 70.2769 1593.63 70.5171 1593.19 70.9976C1592.74 71.4722 1592.47 72.1401 1592.36 73.0015H1597.12V72.8784C1597.08 72.0522 1596.86 71.4136 1596.46 70.9624C1596.06 70.5054 1595.52 70.2769 1594.84 70.2769Z" fill="#FAFBFC"/>
<path d="M361.2 75.7C361.2 72.9 360.5 70.6 359 68.7C357.2 66.4 354.3 64.6 350.3 63.1C344.4 60.8 341.8 58.8 341.8 54.8C341.8 52.4 343.3 49.6 347.1 48.7C347.6 48.6 348 48.5 348.5 48.5C348.6 48.5 348.7 48.5 348.7 48.5C349 48.5 349.4 48.5 349.7 48.5C352.3 48.5 354.4 49.1 356 49.7C357 50.1 358.2 49.5 358.6 48.5L358.9 47.8C359.2 46.8 358.7 45.7 357.8 45.3C355.9 44.6 353.3 44 350 44C349.7 44 349.5 44 349.2 44C348.9 44 348.6 44 348.3 44C335 44 326 53.1 326 66.5C326 80.5 335.1 88.8 347.1 88.1C347.1 88.1 347.7 88.1 348.5 88C350.4 87.8 352.1 87.4 353.5 86.8C354.7 86.4 355.8 85.7 356.8 84.9C359.7 82.5 361.2 79.2 361.2 75.7ZM331.8 66.4C331.8 66.3 331.8 66.3 331.8 66.2C331.8 60.7 333.4 56.7 336.2 53.8C336.1 54.4 336.1 54.9 336.1 55.5C336.1 61.5 340.4 65.1 347.4 67.6C348.3 67.9 349 68.3 349.8 68.6C353.8 70.5 355.5 72.7 355.5 76.1C355.5 80.4 352.2 83.4 346.6 83.4C346.3 83.4 346.1 83.4 345.8 83.4C337.7 82.9 331.9 75.8 331.8 66.4Z" fill="white"/>
<path d="M367.3 102.3C361.3 104.6 355.5 104.2 349.6 102.1C344.6 100.2 339.8 97.8 334.6 96.4C329.3 95 324 94.4 318.9 97C318.8 97.1 318.5 97 318 96.9C321.2 94 324.7 92.7 328.7 92.7C334.7 92.6 340.4 94.3 345.8 96.9C350 98.9 354.3 100.8 359 101.7C361.7 102.2 364.5 102 367.3 102.3Z" fill="white"/>
<path d="M357.801 92.6C360.901 92.6 364.001 92.5 366.801 90.8C368.501 89.8 369.701 88.4 369.601 86.3C369.501 84.3 368.401 83 366.601 82.5C365.101 82.1 363.901 82.7 363.101 83.9C362.001 85.5 362.901 86.8 364.001 88C361.901 88.3 360.301 86.2 360.801 83.8C361.201 81.8 362.301 80.4 364.301 79.7C366.601 78.9 368.701 79.4 370.501 81C374.201 84.2 373.801 89.8 369.601 92.4C365.801 94.8 361.801 94.7 357.801 92.6Z" fill="white"/>
<path d="M373 91.3001C373 91.3001 371.8 93.6001 370.2 94.2001C368.6 94.8001 364.1 98.3001 352.3 92.0001C340.5 85.7001 334.4 84.7 332.4 84.8C330.4 84.9 326.2 84.7 323.7 86.8C321.2 88.9001 319.8 89.7001 320.5 92.1001C320.5 92.1001 322 88.5001 325.6 87.9001C329.2 87.3001 332.5 86.9 336.3 88.3001C340.1 89.7001 349.9 94.0001 351.3 95.1001C352.7 96.2001 360.4 98.5001 364 98.0001C367.6 97.5001 369.1 97.6001 372.8 93.5001C372.9 93.4001 373.9 91.7001 373 91.3001Z" fill="white"/>
<path d="M320.793 520.92C321.528 520.92 322.032 520.458 322.032 519.639C322.032 518.883 321.444 518.463 320.793 518.463C320.73 518.463 320.667 518.463 320.604 518.484C320.604 517.161 321.192 516.342 322.368 515.565L321.822 514.662C320.205 515.607 319.323 516.951 319.323 518.82C319.323 520.164 319.869 520.92 320.793 520.92ZM331.762 531.273C333.757 531.273 335.269 530.475 336.487 529.068L335.416 527.85C334.429 528.921 333.316 529.572 331.846 529.572C328.906 529.572 327.058 527.136 327.058 523.251C327.058 519.408 328.99 517.014 331.909 517.014C333.232 517.014 334.261 517.623 335.059 518.484L336.109 517.224C335.227 516.237 333.757 515.313 331.888 515.313C327.982 515.313 325.063 518.337 325.063 523.314C325.063 528.312 327.94 531.273 331.762 531.273ZM341.793 531.273C343.2 531.273 344.481 530.538 345.573 529.635H345.636L345.804 531H347.379V523.986C347.379 521.172 346.203 519.303 343.431 519.303C341.604 519.303 339.987 520.122 338.937 520.794L339.693 522.117C340.596 521.508 341.793 520.899 343.116 520.899C344.985 520.899 345.468 522.306 345.468 523.776C340.617 524.322 338.454 525.561 338.454 528.039C338.454 530.097 339.882 531.273 341.793 531.273ZM342.339 529.74C341.205 529.74 340.323 529.215 340.323 527.913C340.323 526.443 341.625 525.498 345.468 525.036V528.228C344.355 529.215 343.452 529.74 342.339 529.74ZM353.038 531.273C353.563 531.273 353.878 531.21 354.151 531.105L353.878 529.635C353.668 529.677 353.584 529.677 353.479 529.677C353.185 529.677 352.933 529.446 352.933 528.858V514.284H351.022V528.732C351.022 530.349 351.61 531.273 353.038 531.273ZM357.01 531H358.921V522.726C359.971 521.55 360.937 520.983 361.798 520.983C363.247 520.983 363.919 521.886 363.919 524.028V531H365.83V522.726C366.901 521.55 367.825 520.983 368.707 520.983C370.156 520.983 370.828 521.886 370.828 524.028V531H372.739V523.776C372.739 520.857 371.626 519.303 369.274 519.303C367.888 519.303 366.691 520.206 365.515 521.487C365.053 520.143 364.108 519.303 362.365 519.303C361 519.303 359.803 520.164 358.816 521.256H358.753L358.585 519.597H357.01V531ZM385.6 531.273C388.813 531.273 390.829 529.341 390.829 526.905C390.829 524.616 389.443 523.566 387.658 522.789L385.453 521.844C384.256 521.34 382.912 520.773 382.912 519.282C382.912 517.896 384.046 517.014 385.789 517.014C387.217 517.014 388.351 517.581 389.296 518.463L390.325 517.224C389.233 516.09 387.616 515.313 385.789 515.313C382.996 515.313 380.938 517.035 380.938 519.408C380.938 521.655 382.639 522.747 384.067 523.356L386.293 524.322C387.742 524.973 388.855 525.477 388.855 527.052C388.855 528.564 387.637 529.572 385.621 529.572C384.025 529.572 382.471 528.816 381.379 527.661L380.203 528.984C381.547 530.391 383.416 531.273 385.6 531.273ZM398.277 531.273C399.831 531.273 401.049 530.748 402.057 530.097L401.364 528.837C400.524 529.404 399.621 529.74 398.508 529.74C396.345 529.74 394.854 528.186 394.728 525.75H402.414C402.456 525.477 402.498 525.078 402.498 524.658C402.498 521.403 400.86 519.303 397.962 519.303C395.316 519.303 392.817 521.613 392.817 525.309C392.817 529.068 395.253 531.273 398.277 531.273ZM394.707 524.364C394.938 522.138 396.366 520.836 397.983 520.836C399.768 520.836 400.818 522.075 400.818 524.364H394.707ZM407.603 531.273C409.01 531.273 410.291 530.538 411.383 529.635H411.446L411.614 531H413.189V523.986C413.189 521.172 412.013 519.303 409.241 519.303C407.414 519.303 405.797 520.122 404.747 520.794L405.503 522.117C406.406 521.508 407.603 520.899 408.926 520.899C410.795 520.899 411.278 522.306 411.278 523.776C406.427 524.322 404.264 525.561 404.264 528.039C404.264 530.097 405.692 531.273 407.603 531.273ZM408.149 529.74C407.015 529.74 406.133 529.215 406.133 527.913C406.133 526.443 407.435 525.498 411.278 525.036V528.228C410.165 529.215 409.262 529.74 408.149 529.74ZM416.546 520.878C418.163 519.933 419.045 518.589 419.045 516.72C419.045 515.376 418.499 514.599 417.554 514.599C416.84 514.599 416.336 515.082 416.336 515.88C416.336 516.657 416.924 517.077 417.554 517.077C417.638 517.077 417.722 517.077 417.785 517.056C417.785 518.379 417.176 519.177 416 519.975L416.546 520.878ZM432.295 515.103C429.376 515.103 427.255 516.888 427.255 519.534C427.255 522.159 429.376 523.965 432.295 523.965C435.235 523.965 437.335 522.159 437.335 519.534C437.335 516.888 435.235 515.103 432.295 515.103ZM432.295 516.573C434.248 516.573 435.655 517.77 435.655 519.534C435.655 521.277 434.248 522.495 432.295 522.495C430.363 522.495 428.935 521.277 428.935 519.534C428.935 517.77 430.363 516.573 432.295 516.573ZM439.813 513.717V532.596H441.535V513.717H439.813ZM426.52 528.459C429.922 528.459 434.479 528.417 438.721 527.64L438.574 526.359C434.458 526.989 429.733 527.01 426.31 527.01L426.52 528.459ZM457.003 531.273C458.998 531.273 460.51 530.475 461.728 529.068L460.657 527.85C459.67 528.921 458.557 529.572 457.087 529.572C454.147 529.572 452.299 527.136 452.299 523.251C452.299 519.408 454.231 517.014 457.15 517.014C458.473 517.014 459.502 517.623 460.3 518.484L461.35 517.224C460.468 516.237 458.998 515.313 457.129 515.313C453.223 515.313 450.304 518.337 450.304 523.314C450.304 528.312 453.181 531.273 457.003 531.273ZM465.901 519.366C465.901 517.602 467.287 516.384 469.219 516.384C471.13 516.384 472.516 517.602 472.516 519.366C472.516 521.151 471.13 522.327 469.219 522.327C467.287 522.327 465.901 521.151 465.901 519.366ZM470.08 523.734C472.495 523.419 474.196 521.718 474.196 519.366C474.196 516.72 472.096 514.935 469.219 514.935C466.3 514.935 464.221 516.72 464.221 519.366C464.221 521.718 465.901 523.44 468.358 523.734V526.989C466.594 527.031 464.872 527.052 463.381 527.052L463.612 528.501C466.93 528.501 471.319 528.438 475.309 527.766L475.162 526.506C473.545 526.737 471.802 526.842 470.08 526.926V523.734ZM481.063 521.487H478.081V513.696H476.359V532.554H478.081V522.936H481.063V521.487ZM497.572 531.273C500.785 531.273 502.801 529.341 502.801 526.905C502.801 524.616 501.415 523.566 499.63 522.789L497.425 521.844C496.228 521.34 494.884 520.773 494.884 519.282C494.884 517.896 496.018 517.014 497.761 517.014C499.189 517.014 500.323 517.581 501.268 518.463L502.297 517.224C501.205 516.09 499.588 515.313 497.761 515.313C494.968 515.313 492.91 517.035 492.91 519.408C492.91 521.655 494.611 522.747 496.039 523.356L498.265 524.322C499.714 524.973 500.827 525.477 500.827 527.052C500.827 528.564 499.609 529.572 497.593 529.572C495.997 529.572 494.443 528.816 493.351 527.661L492.175 528.984C493.519 530.391 495.388 531.273 497.572 531.273ZM518.02 517.014H507.016V521.046H520.057V519.807H508.717V518.19H519.721V514.263H506.974V515.481H518.02V517.014ZM508.612 529.32H519.784V525.309H506.869V526.548H518.083V528.123H506.911V532.302H520.372V531.063H508.612V529.32ZM504.832 522.474V523.776H521.905V522.474H504.832ZM543.812 517.791V520.038H538.898V521.382H543.812V523.335H545.555V513.717H543.812V516.447H539.549C539.675 515.859 539.738 515.271 539.738 514.641H531.317V516.048H537.869C537.554 519.03 534.929 521.277 530.33 522.348L530.96 523.755C535.118 522.768 537.995 520.752 539.171 517.791H543.812ZM535.16 531V528.816H545.555V524.196H533.417V525.582H543.833V527.514H533.459V532.365H546.185V531H535.16ZM560.526 515.649H555.822V513.528H554.1V515.649H549.417V517.035H560.526V515.649ZM552.105 521.214C552.105 519.996 553.239 519.219 554.961 519.219C556.683 519.219 557.838 519.996 557.838 521.214C557.838 522.453 556.683 523.209 554.961 523.209C553.239 523.209 552.105 522.453 552.105 521.214ZM559.476 521.214C559.476 519.219 557.649 517.938 554.961 517.938C552.273 517.938 550.467 519.219 550.467 521.214C550.467 523.23 552.273 524.511 554.961 524.511C557.649 524.511 559.476 523.23 559.476 521.214ZM562.269 530.916H553.827V528.837H562.269V530.916ZM562.269 527.493H553.827V525.498H552.126V532.302H563.97V525.498H562.269V527.493ZM566.763 518.505H563.97V513.717H562.248V524.658H563.97V519.954H566.763V518.505ZM574.196 526.926C572.495 526.926 571.256 525.708 571.256 524.028C571.256 522.327 572.495 521.109 574.196 521.109C575.918 521.109 577.157 522.327 577.157 524.028C577.157 525.708 575.918 526.926 574.196 526.926ZM574.196 519.681C571.55 519.681 569.639 521.487 569.639 524.028C569.639 526.59 571.55 528.354 574.196 528.354C576.884 528.354 578.795 526.59 578.795 524.028C578.795 521.487 576.884 519.681 574.196 519.681ZM575.036 513.948H573.314V516.741H568.568V518.127H579.677V516.741H575.036V513.948ZM586.271 521.466H583.184V513.738H581.462V532.554H583.184V522.915H586.271V521.466ZM597.504 523.881C597.63 523.23 597.714 522.516 597.714 521.739C597.714 520.878 597.609 520.08 597.441 519.345H601.788V523.881H597.504ZM593.031 526.779C591.225 526.779 589.965 524.805 589.965 521.739C589.965 518.694 591.225 516.72 593.031 516.72C594.816 516.72 596.097 518.694 596.097 521.739C596.097 524.805 594.816 526.779 593.031 526.779ZM601.788 513.717V517.938H596.958C596.16 516.174 594.774 515.166 593.031 515.166C590.28 515.166 588.327 517.728 588.327 521.739C588.327 525.75 590.28 528.312 593.031 528.312C594.837 528.312 596.307 527.199 597.084 525.288H601.788V532.596H603.51V513.717H601.788ZM626.32 518.715H617.08V515.712H626.32V518.715ZM628.021 514.347H615.4V520.08H628.021V514.347ZM630.226 523.041V521.655H613.174V523.041H620.839V524.889H615.232V526.191H626.341V527.871H615.295V532.344H628.609V531H616.975V529.131H628.042V524.889H622.561V523.041H630.226ZM640.325 522.201H634.991V519.093H640.325V522.201ZM642.005 514.914H640.325V517.749H634.991V514.914H633.29V523.587H642.005V514.914ZM641.144 531.189C638.33 531.189 636.65 530.391 636.65 529.047C636.65 527.703 638.33 526.926 641.144 526.926C643.916 526.926 645.617 527.703 645.617 529.047C645.617 530.391 643.916 531.189 641.144 531.189ZM641.144 525.54C637.301 525.54 634.928 526.821 634.928 529.047C634.928 531.273 637.301 532.554 641.144 532.554C644.966 532.554 647.339 531.273 647.339 529.047C647.339 526.821 644.966 525.54 641.144 525.54ZM647.129 518.463V513.717H645.407V525.057H647.129V519.891H649.922V518.463H647.129ZM660.337 515.229C663.424 515.229 665.188 515.943 665.188 517.203C665.188 518.463 663.424 519.177 660.337 519.177C657.25 519.177 655.486 518.463 655.486 517.203C655.486 515.943 657.25 515.229 660.337 515.229ZM660.337 520.458C664.495 520.458 666.952 519.324 666.952 517.203C666.952 515.082 664.495 513.927 660.337 513.927C656.2 513.927 653.722 515.082 653.722 517.203C653.722 519.324 656.2 520.458 660.337 520.458ZM668.842 523.083V521.697H651.832V523.083H659.476V524.847H653.89V526.149H664.978V527.829H653.932V532.344H667.246V531H655.612V529.089H666.679V524.847H661.198V523.083H668.842ZM684.842 513.717V532.596H686.564V513.717H684.842ZM676.631 515.166C673.838 515.166 671.843 517.728 671.843 521.739C671.843 525.75 673.838 528.312 676.631 528.312C679.424 528.312 681.419 525.75 681.419 521.739C681.419 517.728 679.424 515.166 676.631 515.166ZM676.631 516.72C678.458 516.72 679.76 518.694 679.76 521.739C679.76 524.805 678.458 526.779 676.631 526.779C674.783 526.779 673.481 524.805 673.481 521.739C673.481 518.694 674.783 516.72 676.631 516.72ZM692.925 522.222H699.708V515.46H691.182V516.867H698.007V520.815H691.245V528.018H692.736C696.327 528.018 698.847 527.871 701.787 527.346L701.598 525.918C698.784 526.464 696.348 526.59 692.925 526.59V522.222ZM708.066 521.193H704.979V513.696H703.257V532.575H704.979V522.642H708.066V521.193ZM724.886 519.387H713.798V514.41H712.076V520.794H724.886V519.387ZM713.672 526.59H711.95V532.092H724.991V530.685H713.672V526.59ZM709.766 523.314V524.7H726.839V523.314H709.766ZM738.666 516.657H748.305V522.768H738.666V516.657ZM744.378 528.711V524.133H749.985V515.292H737.007V524.133H742.635V528.711H734.991V530.139H752.064V528.711H744.378ZM756.346 519.261C756.346 517.497 757.69 516.279 759.58 516.279C761.449 516.279 762.814 517.497 762.814 519.261C762.814 521.025 761.449 522.264 759.58 522.264C757.69 522.264 756.346 521.025 756.346 519.261ZM764.494 519.261C764.494 516.657 762.415 514.851 759.58 514.851C756.724 514.851 754.666 516.657 754.666 519.261C754.666 521.886 756.724 523.713 759.58 523.713C762.415 523.713 764.494 521.886 764.494 519.261ZM762.94 531.168C760.147 531.168 758.446 530.349 758.446 529.005C758.446 527.64 760.147 526.842 762.94 526.842C765.712 526.842 767.413 527.64 767.413 529.005C767.413 530.349 765.712 531.168 762.94 531.168ZM762.94 525.477C759.118 525.477 756.724 526.758 756.724 529.005C756.724 531.231 759.118 532.533 762.94 532.533C766.741 532.533 769.135 531.231 769.135 529.005C769.135 526.758 766.741 525.477 762.94 525.477ZM771.676 517.938V516.531H768.946V513.738H767.224V524.889H768.946V521.97H771.676V520.542H768.946V517.938H771.676ZM782.133 515.334C785.22 515.334 786.984 516.048 786.984 517.308C786.984 518.568 785.22 519.282 782.133 519.282C779.046 519.282 777.282 518.568 777.282 517.308C777.282 516.048 779.046 515.334 782.133 515.334ZM782.133 520.563C786.27 520.563 788.748 519.429 788.748 517.308C788.748 515.187 786.27 514.032 782.133 514.032C777.996 514.032 775.518 515.187 775.518 517.308C775.518 519.429 777.996 520.563 782.133 520.563ZM777.408 529.089H788.475V524.847H775.665V526.149H786.774V527.829H775.728V532.344H789.042V531H777.408V529.089ZM773.607 521.844V523.23H790.659V521.844H773.607ZM806.581 522.747H801.289V516.783H806.581V522.747ZM808.261 515.397H799.609V524.112H808.261V515.397ZM803.452 526.212H801.73V532.134H814.288V530.727H803.452V526.212ZM813.448 519.45V513.696H811.726V527.493H813.448V520.899H816.22V519.45H813.448ZM833.165 518.673H822.14V515.733H832.976V514.347H820.418V520.059H833.165V518.673ZM821.93 529.047H832.997V524.616H820.187V525.96H831.296V527.766H820.25V532.323H833.564V530.979H821.93V529.047ZM818.15 521.571V522.978H835.202V521.571H818.15ZM842.508 526.779C840.702 526.779 839.442 524.805 839.442 521.739C839.442 518.694 840.702 516.72 842.508 516.72C844.293 516.72 845.553 518.694 845.553 521.739C845.553 524.805 844.293 526.779 842.508 526.779ZM851.265 513.717V520.899H847.17C846.897 517.371 845.049 515.166 842.508 515.166C839.757 515.166 837.804 517.728 837.804 521.739C837.804 525.75 839.757 528.312 842.508 528.312C845.133 528.312 847.002 526.002 847.17 522.306H851.265V532.596H852.987V513.717H851.265ZM874.307 519.828H876.911V524.553H878.57V513.738H876.911V518.421H874.307V514.095H872.69V524.343H874.307V519.828ZM871.346 521.277C869.12 521.697 867.251 521.823 865.319 521.844V515.208H863.618V523.293H864.815C866.999 523.293 869.057 523.188 871.514 522.705L871.346 521.277ZM876.26 525.141H874.559V526.38C874.559 527.829 873.677 529.74 871.913 530.874C870.149 529.845 869.309 528.081 869.309 526.38V525.141H867.65V526.38C867.65 528.207 866.222 530.244 863.87 531.105L864.71 532.386C866.474 531.714 867.776 530.412 868.448 528.9C869.015 530.475 870.149 531.84 871.955 532.554C873.698 531.798 874.832 530.349 875.399 528.816C876.029 530.412 877.331 531.714 879.2 532.386L880.04 531.105C877.667 530.307 876.26 528.333 876.26 526.38V525.141ZM895.284 517.476C895.284 519.744 895.284 522.39 894.57 526.002L896.292 526.191C897.006 522.39 897.006 519.807 897.006 517.476V515.607H883.797V517.014H895.284V517.476ZM890.349 528.501V521.76H888.627V528.501H882.012V529.908H899.043V528.501H890.349ZM326.946 570.611H321.57V565.655H326.946V570.611ZM326.946 564.29H321.57V559.313H319.869V572.018H328.626V559.313H326.946V564.29ZM336.711 565.13H333.603V557.738H331.881V576.533H333.603V566.579H336.711V565.13ZM340.951 560.951H347.986V559.523H339.229V571.892H340.72C344.269 571.892 346.747 571.766 349.624 571.22L349.435 569.792C346.705 570.275 344.29 570.422 340.951 570.422V560.951ZM356.029 565.151H352.921V557.717H351.199V576.596H352.921V566.579H356.029V565.151ZM362.013 570.821C360.501 570.821 359.556 568.91 359.556 565.823C359.556 562.799 360.501 560.888 362.013 560.888C363.483 560.888 364.449 562.799 364.449 565.823C364.449 568.91 363.483 570.821 362.013 570.821ZM368.376 565.046H366.003C365.793 561.497 364.281 559.292 362.013 559.292C359.556 559.292 357.981 561.812 357.981 565.823C357.981 569.897 359.556 572.417 362.013 572.417C364.323 572.417 365.856 570.149 366.003 566.453H368.376V575.63H370.014V558.137H368.376V565.046ZM372.114 557.717V576.554H373.752V557.717H372.114ZM392.167 563.387H381.079V558.41H379.357V564.794H392.167V563.387ZM380.953 570.59H379.231V576.092H392.272V574.685H380.953V570.59ZM377.047 567.314V568.7H394.12V567.314H377.047ZM402.196 559.754V561.14H409.273C408.916 565.613 406.396 569.225 401.335 571.64L402.259 573.047C408.517 569.981 411.016 565.193 411.016 559.754H402.196ZM414.817 557.717V576.554H416.539V557.717H414.817ZM422.018 569.141C425.042 568.595 427.751 567.083 428.948 564.773C430.124 567.083 432.833 568.595 435.857 569.141L436.529 567.776C432.875 567.188 429.809 564.983 429.809 562.085H435.857V560.699H429.809V558.137H428.066V560.699H421.997V562.085H428.066C428.066 564.983 425 567.188 421.346 567.776L422.018 569.141ZM429.809 572.753V568.469H428.066V572.753H420.401V574.181H437.495V572.753H429.809ZM450.828 566.915C448.098 565.949 446.25 563.576 446.25 561.161V560.405H450.387V558.998H440.328V560.405H444.528V561.161C444.528 563.828 442.575 566.348 439.782 567.335L440.685 568.7C442.89 567.881 444.612 566.159 445.41 563.996C446.25 565.949 447.867 567.503 449.967 568.259L450.828 566.915ZM442.638 571.409H453.495V576.575H455.238V570.023H442.638V571.409ZM453.495 557.717V562.631H449.82V564.038H453.495V568.994H455.238V557.717H453.495ZM472.73 557.717V576.596H474.452V557.717H472.73ZM464.519 559.166C461.726 559.166 459.731 561.728 459.731 565.739C459.731 569.75 461.726 572.312 464.519 572.312C467.312 572.312 469.307 569.75 469.307 565.739C469.307 561.728 467.312 559.166 464.519 559.166ZM464.519 560.72C466.346 560.72 467.648 562.694 467.648 565.739C467.648 568.805 466.346 570.779 464.519 570.779C462.671 570.779 461.369 568.805 461.369 565.739C461.369 562.694 462.671 560.72 464.519 560.72ZM485.076 561.077H489.507V559.649H478.986V561.077H483.354V563.471C483.354 566.726 481.065 570.275 478.356 571.556L479.364 572.942C481.506 571.85 483.354 569.477 484.215 566.726C485.118 569.309 486.966 571.472 489.15 572.48L490.116 571.094C487.344 569.918 485.076 566.663 485.076 563.471V561.077ZM492.048 557.738V576.554H493.77V557.738H492.048ZM505.424 566.747H500.132V560.783H505.424V566.747ZM507.104 559.397H498.452V568.112H507.104V559.397ZM502.295 570.212H500.573V576.134H513.131V574.727H502.295V570.212ZM512.291 563.45V557.696H510.569V571.493H512.291V564.899H515.063V563.45H512.291ZM537.166 557.717H535.444V567.503H537.166V557.717ZM526.057 560.342H529.123V565.235C528.094 565.298 527.065 565.34 526.057 565.361V560.342ZM533.554 564.878C532.651 564.962 531.727 565.067 530.782 565.13V560.342H532.63V558.977H522.529V560.342H524.377V565.403C523.558 565.424 522.76 565.424 522.025 565.424L522.193 566.852C525.511 566.831 529.9 566.705 533.638 566.138L533.554 564.878ZM526.624 574.979V572.921H537.166V568.406H524.86V569.75H535.465V571.64H524.923V576.344H537.88V574.979H526.624ZM546.909 568.28C547.686 568.469 548.589 568.574 549.513 568.574C550.458 568.574 551.361 568.469 552.159 568.28V572.711H546.909V568.28ZM549.513 560.258C552.537 560.258 554.721 561.644 554.721 563.744C554.721 565.844 552.537 567.23 549.513 567.23C546.489 567.23 544.326 565.844 544.326 563.744C544.326 561.644 546.489 560.258 549.513 560.258ZM553.881 572.711V567.608C555.435 566.789 556.359 565.445 556.359 563.744C556.359 560.804 553.524 558.914 549.513 558.914C545.523 558.914 542.667 560.804 542.667 563.744C542.667 565.445 543.612 566.81 545.187 567.629V572.711H540.987V574.139H558.102V572.711H553.881ZM569.713 572.816V569.267H575.74V567.881H564.148V564.836H575.299V559.103H562.405V560.51H573.619V563.45H562.447V569.267H567.97V572.816H560.305V574.223H577.42V572.816H569.713ZM590.816 560.027H586.112V557.717H584.39V560.027H579.707V561.413H590.816V560.027ZM582.395 565.949C582.395 564.647 583.55 563.807 585.251 563.807C586.952 563.807 588.128 564.647 588.128 565.949C588.128 567.272 586.952 568.112 585.251 568.112C583.55 568.112 582.395 567.272 582.395 565.949ZM589.766 565.949C589.766 563.849 587.918 562.463 585.251 562.463C582.584 562.463 580.757 563.849 580.757 565.949C580.757 568.07 582.584 569.456 585.251 569.456C587.918 569.456 589.766 568.07 589.766 565.949ZM584.264 570.737H582.542V576.134H595.1V574.727H584.264V570.737ZM594.26 563.933V557.717H592.538V571.85H594.26V565.382H597.032V563.933H594.26ZM605.339 566.075C608.384 565.613 611.156 564.101 612.185 561.917C613.214 564.101 615.986 565.613 619.031 566.075L619.682 564.689C616.343 564.248 613.298 562.379 613.298 560.069V560.027H619.157V558.641H605.213V560.027H611.072V560.069C611.072 562.379 608.027 564.248 604.688 564.689L605.339 566.075ZM607.565 570.821H605.843V576.134H618.8V574.727H607.565V570.821ZM613.025 567.881V564.752H611.303V567.881H603.638V569.288H620.753V567.881H613.025ZM628.542 561.35H631.965V559.943H623.229V561.35H626.883V562.82C626.883 566.642 625.476 569.855 622.788 571.367L623.838 572.669C625.791 571.535 627.114 569.498 627.744 566.936C628.416 569.162 629.718 570.989 631.566 572.018L632.574 570.695C629.907 569.309 628.542 566.264 628.542 562.82V561.35ZM637.383 557.696V565.319H634.905V558.137H633.288V575.63H634.905V566.747H637.383V576.554H639.042V557.696H637.383ZM655.988 557.717V576.596H657.71V557.717H655.988ZM647.777 559.166C644.984 559.166 642.989 561.728 642.989 565.739C642.989 569.75 644.984 572.312 647.777 572.312C650.57 572.312 652.565 569.75 652.565 565.739C652.565 561.728 650.57 559.166 647.777 559.166ZM647.777 560.72C649.604 560.72 650.906 562.694 650.906 565.739C650.906 568.805 649.604 570.779 647.777 570.779C645.929 570.779 644.627 568.805 644.627 565.739C644.627 562.694 645.929 560.72 647.777 560.72ZM662.727 559.754V561.14H669.804C669.447 565.613 666.927 569.225 661.866 571.64L662.79 573.047C669.048 569.981 671.547 565.193 671.547 559.754H662.727ZM675.348 557.717V576.554H677.07V557.717H675.348ZM687.771 561.497H690.228V560.09H686.196V571.64H686.952C687.729 571.64 688.947 571.64 690.501 571.283L690.333 569.855C689.367 570.086 688.464 570.17 687.771 570.191V561.497ZM692.601 561.497H695.184V560.09H691.026V571.64H691.803C692.895 571.64 694.176 571.619 695.73 571.22L695.583 569.792C694.491 570.086 693.462 570.17 692.601 570.212V561.497ZM700.224 557.717V565.403H698.019V558.137H696.423V575.609H698.019V566.81H700.224V576.533H701.862V557.717H700.224ZM718.093 563.828H708.811V559.985H718.093V563.828ZM719.794 558.599H707.131V565.214H719.794V558.599ZM708.811 570.758H707.089V576.134H720.109V574.727H708.811V570.758ZM704.905 567.356V568.742H712.738V572.543H714.46V568.742H722.02V567.356H704.905ZM728.528 570.821C727.016 570.821 726.071 568.91 726.071 565.823C726.071 562.799 727.016 560.888 728.528 560.888C729.998 560.888 730.964 562.799 730.964 565.823C730.964 568.91 729.998 570.821 728.528 570.821ZM734.891 565.046H732.518C732.308 561.497 730.796 559.292 728.528 559.292C726.071 559.292 724.496 561.812 724.496 565.823C724.496 569.897 726.071 572.417 728.528 572.417C730.838 572.417 732.371 570.149 732.518 566.453H734.891V575.63H736.529V558.137H734.891V565.046ZM738.629 557.717V576.554H740.267V557.717H738.629ZM761.342 561.602C761.342 563.933 761.342 566.747 760.586 570.59L762.308 570.779C763.043 566.705 763.043 563.996 763.043 561.602V559.712H750.128V561.119H761.342V561.602ZM748.301 572.375V573.803H765.332V572.375H748.301ZM781.374 571.535H783.117V557.738H781.374V562.631H777.867V564.101H781.374V571.535ZM778.203 567.041C775.704 567.461 773.583 567.566 770.076 567.566V564.542H776.691V559.04H768.333V560.426H774.969V563.219H768.375V568.973H769.803C773.52 568.973 775.725 568.889 778.371 568.448L778.203 567.041ZM772.68 574.727V570.506H770.958V576.134H783.684V574.727H772.68ZM794.532 560.951H801.735V559.502H792.831V571.913H794.343C798.144 571.913 800.601 571.787 803.499 571.262L803.31 569.813C800.538 570.338 798.165 570.443 794.532 570.443V560.951ZM805.305 557.717V576.596H807.027V557.717H805.305ZM817.273 561.077H821.452V559.649H811.267V561.077H815.572V563.471C815.572 566.663 813.304 570.233 810.616 571.577L811.624 572.942C813.745 571.85 815.572 569.456 816.433 566.705C817.294 569.225 819.058 571.43 821.158 572.48L822.145 571.094C819.415 569.813 817.273 566.474 817.273 563.471V561.077ZM828.529 565.319H825.421V557.738H823.699V576.554H825.421V566.768H828.529V565.319ZM843.942 557.717V576.596H845.664V557.717H843.942ZM835.731 559.166C832.938 559.166 830.943 561.728 830.943 565.739C830.943 569.75 832.938 572.312 835.731 572.312C838.524 572.312 840.519 569.75 840.519 565.739C840.519 561.728 838.524 559.166 835.731 559.166ZM835.731 560.72C837.558 560.72 838.86 562.694 838.86 565.739C838.86 568.805 837.558 570.779 835.731 570.779C833.883 570.779 832.581 568.805 832.581 565.739C832.581 562.694 833.883 560.72 835.731 560.72ZM852.319 559.817H850.597V572.039H852.067C855.049 572.039 857.695 571.85 860.677 571.283L860.446 569.813C857.674 570.38 855.112 570.569 852.319 570.59V559.817ZM863.365 557.717V563.933H857.59V565.361H863.365V576.596H865.087V557.717H863.365ZM869.894 559.733V561.161H876.803C876.404 565.613 873.821 569.225 869.012 571.64L869.957 572.984C876.047 569.939 878.504 565.088 878.504 559.733H869.894ZM886.4 565.361H883.376V557.717H881.654V576.554H883.376V566.789H886.4V565.361ZM326.19 611.251H330.243V609.844H322.326V604.909H330.159V603.481H320.625V611.251H324.468V614.989C322.641 615.052 320.856 615.052 319.239 615.052L319.449 616.501C323.019 616.501 327.534 616.417 331.65 615.787L331.503 614.527C329.823 614.737 327.996 614.842 326.19 614.926V611.251ZM332.742 601.696V620.596H334.464V601.696H332.742ZM351.724 605.476C351.724 607.744 351.724 610.39 351.01 614.002L352.732 614.191C353.446 610.39 353.446 607.807 353.446 605.476V603.607H340.237V605.014H351.724V605.476ZM346.789 616.501V609.76H345.067V616.501H338.452V617.908H355.483V616.501H346.789ZM364.092 605.077H368.271V603.649H358.086V605.077H362.391V607.471C362.391 610.663 360.123 614.233 357.435 615.577L358.443 616.942C360.564 615.85 362.391 613.456 363.252 610.705C364.113 613.225 365.877 615.43 367.977 616.48L368.964 615.094C366.234 613.813 364.092 610.474 364.092 607.471V605.077ZM375.348 609.319H372.24V601.738H370.518V620.554H372.24V610.768H375.348V609.319ZM388.211 612.385H392.306V616.858H388.211V612.385ZM387.917 604.846H392.6V610.999H387.917V604.846ZM394.028 616.858V612.385H397.22V610.999H394.322V604.846H397.241V603.46H383.276V604.846H386.195V610.999H383.318V612.385H386.489V616.858H381.743V618.265H398.837V616.858H394.028ZM411.667 606.736V608.143H414.838V610.684H411.667V612.091H414.838V616.081H416.581V601.738H414.838V606.736H411.667ZM411.667 604.027H407.341V601.696H405.619V604.027H401.125V605.413H411.667V604.027ZM403.834 610.033C403.834 608.71 404.905 607.807 406.459 607.807C408.013 607.807 409.084 608.71 409.084 610.033C409.084 611.377 408.013 612.301 406.459 612.301C404.905 612.301 403.834 611.377 403.834 610.033ZM410.722 610.033C410.722 607.891 408.958 606.463 406.459 606.463C403.96 606.463 402.196 607.891 402.196 610.033C402.196 612.196 403.96 613.645 406.459 613.645C408.958 613.645 410.722 612.196 410.722 610.033ZM406.207 618.727V614.863H404.485V620.134H417.022V618.727H406.207ZM432.266 608.311H434.639V613.393H436.298V601.738H434.639V606.904H432.266V602.011H430.649V613.099H432.266V608.311ZM429.872 603.88H425.945V601.822H424.244V603.88H420.296V605.245H429.851L429.872 603.88ZM425.105 607.471C426.575 607.471 427.583 608.248 427.583 609.424C427.583 610.6 426.575 611.356 425.105 611.356C423.614 611.356 422.627 610.6 422.627 609.424C422.627 608.248 423.614 607.471 425.105 607.471ZM425.105 612.637C427.478 612.637 429.116 611.356 429.116 609.424C429.116 607.471 427.478 606.19 425.105 606.19C422.732 606.19 421.073 607.471 421.073 609.424C421.073 611.356 422.732 612.637 425.105 612.637ZM433.988 613.939H432.287V614.59C432.287 615.976 431.405 617.782 429.641 618.832C427.898 617.866 427.037 616.186 427.037 614.59V613.939H425.378V614.59C425.378 616.312 423.95 618.244 421.598 619.042L422.396 620.323C424.202 619.672 425.504 618.433 426.197 616.963C426.764 618.496 427.877 619.819 429.683 620.491C431.426 619.777 432.56 618.391 433.127 616.9C433.757 618.433 435.08 619.672 436.97 620.323L437.768 619.042C435.395 618.286 433.988 616.438 433.988 614.59V613.939ZM455.784 607.597C452.445 607.177 449.127 605.098 449.127 602.767V601.927H447.363V602.767C447.363 605.161 444.066 607.177 440.685 607.597L441.315 608.983C444.255 608.521 447.069 607.051 448.245 604.951C449.442 607.051 452.235 608.521 455.154 608.983L455.784 607.597ZM452.823 618.916H443.562V616.522H452.823V618.916ZM452.823 615.199H443.562V612.994H441.861V620.302H454.524V612.994H452.823V615.199ZM439.698 610.306V611.692H456.75V610.306H439.698ZM461.936 603.544H460.214V615.682H461.768C464.771 615.682 467.732 615.472 471.008 614.8L470.819 613.33C467.69 613.96 464.771 614.212 461.936 614.212V603.544ZM472.751 601.717V620.533H474.473V601.717H472.751ZM480.876 604.951H487.911V603.523H479.154V615.892H480.645C484.194 615.892 486.672 615.766 489.549 615.22L489.36 613.792C486.63 614.275 484.215 614.422 480.876 614.422V604.951ZM495.954 609.151H492.846V601.717H491.124V620.596H492.846V610.579H495.954V609.151ZM499.481 619.273C500.237 619.273 500.867 618.685 500.867 617.824C500.867 616.942 500.237 616.333 499.481 616.333C498.725 616.333 498.095 616.942 498.095 617.824C498.095 618.685 498.725 619.273 499.481 619.273ZM513.739 614.926C512.038 614.926 510.799 613.708 510.799 612.028C510.799 610.327 512.038 609.109 513.739 609.109C515.461 609.109 516.7 610.327 516.7 612.028C516.7 613.708 515.461 614.926 513.739 614.926ZM513.739 607.681C511.093 607.681 509.182 609.487 509.182 612.028C509.182 614.59 511.093 616.354 513.739 616.354C516.427 616.354 518.338 614.59 518.338 612.028C518.338 609.487 516.427 607.681 513.739 607.681ZM514.579 601.948H512.857V604.741H508.111V606.127H519.22V604.741H514.579V601.948ZM525.814 609.466H522.727V601.738H521.005V620.554H522.727V610.915H525.814V609.466ZM538.433 609.97C535.976 610.453 533.834 610.6 530.117 610.6V604.741H536.732V603.355H528.395V612.007H529.865C533.813 612.007 536.039 611.881 538.622 611.356L538.433 609.97ZM532.154 613.981H530.432V620.134H542.99V618.727H532.154V613.981ZM542.15 607.303V601.717H540.428V615.346H542.15V608.731H544.943V607.303H542.15ZM551.115 614.821C549.603 614.821 548.658 612.91 548.658 609.823C548.658 606.799 549.603 604.888 551.115 604.888C552.585 604.888 553.551 606.799 553.551 609.823C553.551 612.91 552.585 614.821 551.115 614.821ZM557.478 609.046H555.105C554.895 605.497 553.383 603.292 551.115 603.292C548.658 603.292 547.083 605.812 547.083 609.823C547.083 613.897 548.658 616.417 551.115 616.417C553.425 616.417 554.958 614.149 555.105 610.453H557.478V619.63H559.116V602.137H557.478V609.046ZM561.216 601.717V620.554H562.854V601.717H561.216ZM581.27 607.387H570.182V602.41H568.46V608.794H581.27V607.387ZM570.056 614.59H568.334V620.092H581.375V618.685H570.056V614.59ZM566.15 611.314V612.7H583.223V611.314H566.15ZM601.126 611.419C598.354 610.453 596.548 608.143 596.548 605.623V604.762H600.706V603.355H590.647V604.762H594.826V605.623C594.826 608.29 592.936 610.81 590.122 611.818L591.004 613.204C593.209 612.364 594.91 610.684 595.708 608.521C596.527 610.453 598.144 611.965 600.202 612.742L601.126 611.419ZM594.805 614.275H593.083V620.134H605.641V618.727H594.805V614.275ZM604.801 607.471V601.717H603.079V615.472H604.801V608.899H607.573V607.471H604.801ZM620.445 611.419C617.673 610.453 615.867 608.143 615.867 605.623V604.762H620.025V603.355H609.966V604.762H614.145V605.623C614.145 608.29 612.255 610.81 609.441 611.818L610.323 613.204C612.528 612.364 614.229 610.684 615.027 608.521C615.846 610.453 617.463 611.965 619.521 612.742L620.445 611.419ZM614.124 614.275H612.402V620.134H624.96V618.727H614.124V614.275ZM624.12 607.471V601.717H622.398V615.472H624.12V608.899H626.892V607.471H624.12ZM639.994 604.027H635.29V601.717H633.568V604.027H628.885V605.413H639.994V604.027ZM631.573 609.949C631.573 608.647 632.728 607.807 634.429 607.807C636.13 607.807 637.306 608.647 637.306 609.949C637.306 611.272 636.13 612.112 634.429 612.112C632.728 612.112 631.573 611.272 631.573 609.949ZM638.944 609.949C638.944 607.849 637.096 606.463 634.429 606.463C631.762 606.463 629.935 607.849 629.935 609.949C629.935 612.07 631.762 613.456 634.429 613.456C637.096 613.456 638.944 612.07 638.944 609.949ZM633.442 614.737H631.72V620.134H644.278V618.727H633.442V614.737ZM643.438 607.933V601.717H641.716V615.85H643.438V609.382H646.21V607.933H643.438ZM656.785 605.14H659.872V614.296C658.843 614.338 657.793 614.38 656.785 614.401V605.14ZM661.552 605.14H663.568V603.754H653.089V605.14H655.105V614.422C654.223 614.443 653.383 614.443 652.606 614.443L652.816 615.892C656.134 615.892 660.607 615.829 664.555 615.199L664.429 613.918C663.505 614.044 662.539 614.128 661.552 614.191V605.14ZM670.435 609.256H667.327V601.738H665.605V620.554H667.327V610.684H670.435V609.256ZM681.542 616.753V611.923H687.275V610.537H676.04V604.636H687.086V603.229H674.318V611.923H679.799V616.753H672.134V618.181H689.249V616.753H681.542ZM699.845 604.657H709.484V610.768H699.845V604.657ZM705.557 616.711V612.133H711.164V603.292H698.186V612.133H703.814V616.711H696.17V618.139H713.243V616.711H705.557ZM717.525 607.261C717.525 605.497 718.869 604.279 720.759 604.279C722.628 604.279 723.993 605.497 723.993 607.261C723.993 609.025 722.628 610.264 720.759 610.264C718.869 610.264 717.525 609.025 717.525 607.261ZM725.673 607.261C725.673 604.657 723.594 602.851 720.759 602.851C717.903 602.851 715.845 604.657 715.845 607.261C715.845 609.886 717.903 611.713 720.759 611.713C723.594 611.713 725.673 609.886 725.673 607.261ZM724.119 619.168C721.326 619.168 719.625 618.349 719.625 617.005C719.625 615.64 721.326 614.842 724.119 614.842C726.891 614.842 728.592 615.64 728.592 617.005C728.592 618.349 726.891 619.168 724.119 619.168ZM724.119 613.477C720.297 613.477 717.903 614.758 717.903 617.005C717.903 619.231 720.297 620.533 724.119 620.533C727.92 620.533 730.314 619.231 730.314 617.005C730.314 614.758 727.92 613.477 724.119 613.477ZM732.855 605.938V604.531H730.125V601.738H728.403V612.889H730.125V609.97H732.855V608.542H730.125V605.938H732.855ZM740.917 603.103C737.998 603.103 735.877 604.888 735.877 607.534C735.877 610.159 737.998 611.965 740.917 611.965C743.857 611.965 745.957 610.159 745.957 607.534C745.957 604.888 743.857 603.103 740.917 603.103ZM740.917 604.573C742.87 604.573 744.277 605.77 744.277 607.534C744.277 609.277 742.87 610.495 740.917 610.495C738.985 610.495 737.557 609.277 737.557 607.534C737.557 605.77 738.985 604.573 740.917 604.573ZM748.435 601.717V620.596H750.157V601.717H748.435ZM735.142 616.459C738.544 616.459 743.101 616.417 747.343 615.64L747.196 614.359C743.08 614.989 738.355 615.01 734.932 615.01L735.142 616.459ZM771.988 604.174C771.988 605.56 771.988 607.072 771.505 609.193L773.227 609.361C773.689 607.24 773.689 605.602 773.689 604.174V602.746H760.858V604.132H771.988V604.174ZM760.669 615.598H771.946V620.554H773.668V614.212H760.669V615.598ZM767.536 610.684V606.862H765.814V610.684H758.863V612.07H775.831V610.684H767.536ZM791.915 615.808H793.658V601.738H791.915V606.148H787.799V607.576H791.915V615.808ZM789.143 611.356C786.434 610.348 784.586 607.87 784.586 605.245V602.851H782.864V605.182C782.864 608.059 780.974 610.726 778.16 611.755L779.063 613.12C781.268 612.238 782.948 610.453 783.746 608.206C784.544 610.243 786.161 611.86 788.24 612.679L789.143 611.356ZM783.263 618.727V614.254H781.541V620.134H794.099V618.727H783.263ZM805.963 602.893C802.057 602.893 799.117 604.972 799.117 608.101C799.117 611.251 802.057 613.309 805.963 613.309C809.869 613.309 812.809 611.251 812.809 608.101C812.809 604.972 809.869 602.893 805.963 602.893ZM805.963 604.3C808.945 604.3 811.171 605.833 811.171 608.101C811.171 610.39 808.945 611.902 805.963 611.902C803.002 611.902 800.755 610.39 800.755 608.101C800.755 605.833 803.002 604.3 805.963 604.3ZM797.437 616.627V618.055H814.552V616.627H797.437ZM826.163 616.816V613.267H832.19V611.881H820.598V608.836H831.749V603.103H818.855V604.51H830.069V607.45H818.897V613.267H824.42V616.816H816.755V618.223H833.87V616.816H826.163ZM330.319 649.056H334.603V647.649H324.334V649.056H328.597V651.24C328.597 654.579 326.35 658.149 323.662 659.472L324.67 660.837C326.812 659.703 328.639 657.288 329.458 654.516C330.319 657.12 332.125 659.367 334.225 660.438L335.254 659.094C332.524 657.792 330.319 654.369 330.319 651.24V649.056ZM337.606 645.717V652.563H333.532V653.97H337.606V664.575H339.328V645.717H337.606ZM349.239 647.103C346.32 647.103 344.199 648.888 344.199 651.534C344.199 654.159 346.32 655.965 349.239 655.965C352.179 655.965 354.279 654.159 354.279 651.534C354.279 648.888 352.179 647.103 349.239 647.103ZM349.239 648.573C351.192 648.573 352.599 649.77 352.599 651.534C352.599 653.277 351.192 654.495 349.239 654.495C347.307 654.495 345.879 653.277 345.879 651.534C345.879 649.77 347.307 648.573 349.239 648.573ZM356.757 645.717V664.596H358.479V645.717H356.757ZM343.464 660.459C346.866 660.459 351.423 660.417 355.665 659.64L355.518 658.359C351.402 658.989 346.677 659.01 343.254 659.01L343.464 660.459ZM373.442 650.358H377.621V648.972H373.442V646.053H371.72V648.972H367.478V650.358H371.741V651.828C371.741 655.083 369.725 658.275 366.974 659.619L367.94 660.921C370.082 659.871 371.804 657.687 372.602 655.104C373.4 657.519 374.996 659.577 377.054 660.585L378.02 659.241C375.311 657.939 373.442 654.852 373.442 651.828V650.358ZM384.74 653.466H381.632V645.717H379.91V664.554H381.632V654.894H384.74V653.466ZM399.565 652.479H390.409V650.043H399.565V652.479ZM401.266 646.305H399.565V648.72H390.409V646.305H388.708V653.844H401.266V646.305ZM390.304 659.01H388.603V664.134H401.623V662.727H390.304V659.01ZM386.419 655.671V657.057H394.252V660.711H395.974V657.057H403.534V655.671H386.419ZM411.302 658.926C409.601 658.926 408.362 657.708 408.362 656.028C408.362 654.327 409.601 653.109 411.302 653.109C413.024 653.109 414.263 654.327 414.263 656.028C414.263 657.708 413.024 658.926 411.302 658.926ZM411.302 651.681C408.656 651.681 406.745 653.487 406.745 656.028C406.745 658.59 408.656 660.354 411.302 660.354C413.99 660.354 415.901 658.59 415.901 656.028C415.901 653.487 413.99 651.681 411.302 651.681ZM412.142 645.948H410.42V648.741H405.674V650.127H416.783V648.741H412.142V645.948ZM423.377 653.466H420.29V645.738H418.568V664.554H420.29V654.915H423.377V653.466ZM438.39 649.476C438.39 651.744 438.39 654.39 437.676 658.002L439.398 658.191C440.112 654.39 440.112 651.807 440.112 649.476V647.607H426.903V649.014H438.39V649.476ZM433.455 660.501V653.76H431.733V660.501H425.118V661.908H442.149V660.501H433.455ZM460.053 655.419C457.281 654.453 455.475 652.143 455.475 649.623V648.762H459.633V647.355H449.574V648.762H453.753V649.623C453.753 652.29 451.863 654.81 449.049 655.818L449.931 657.204C452.136 656.364 453.837 654.684 454.635 652.521C455.454 654.453 457.071 655.965 459.129 656.742L460.053 655.419ZM453.732 658.275H452.01V664.134H464.568V662.727H453.732V658.275ZM463.728 651.471V645.717H462.006V659.472H463.728V652.899H466.5V651.471H463.728ZM479.371 655.419C476.599 654.453 474.793 652.143 474.793 649.623V648.762H478.951V647.355H468.892V648.762H473.071V649.623C473.071 652.29 471.181 654.81 468.367 655.818L469.249 657.204C471.454 656.364 473.155 654.684 473.953 652.521C474.772 654.453 476.389 655.965 478.447 656.742L479.371 655.419ZM473.05 658.275H471.328V664.134H483.886V662.727H473.05V658.275ZM483.046 651.471V645.717H481.324V659.472H483.046V652.899H485.818V651.471H483.046ZM498.921 648.027H494.217V645.717H492.495V648.027H487.812V649.413H498.921V648.027ZM490.5 653.949C490.5 652.647 491.655 651.807 493.356 651.807C495.057 651.807 496.233 652.647 496.233 653.949C496.233 655.272 495.057 656.112 493.356 656.112C491.655 656.112 490.5 655.272 490.5 653.949ZM497.871 653.949C497.871 651.849 496.023 650.463 493.356 650.463C490.689 650.463 488.862 651.849 488.862 653.949C488.862 656.07 490.689 657.456 493.356 657.456C496.023 657.456 497.871 656.07 497.871 653.949ZM492.369 658.737H490.647V664.134H503.205V662.727H492.369V658.737ZM502.365 651.933V645.717H500.643V659.85H502.365V653.382H505.137V651.933H502.365ZM525.539 656.868H527.282V645.738H525.539V649.728H521.444V651.135H525.539V656.868ZM522.809 654.642C520.058 653.676 518.231 651.345 518.231 648.657V646.788H516.509V648.72C516.509 651.597 514.64 654.117 511.742 655.146L512.645 656.553C514.913 655.692 516.614 653.991 517.412 651.765C518.231 653.718 519.827 655.209 521.885 655.986L522.809 654.642ZM521.066 663.168C518.231 663.168 516.509 662.349 516.509 660.984C516.509 659.598 518.231 658.779 521.066 658.779C523.901 658.779 525.623 659.598 525.623 660.984C525.623 662.349 523.901 663.168 521.066 663.168ZM521.066 657.435C517.202 657.435 514.787 658.716 514.787 660.984C514.787 663.231 517.202 664.533 521.066 664.533C524.93 664.533 527.345 663.231 527.345 660.984C527.345 658.716 524.93 657.435 521.066 657.435ZM534.001 659.178H544.858V664.512H546.601V657.792H534.001V659.178ZM544.858 645.717V649.077H540.7C540.868 648.405 540.952 647.691 540.952 646.977H532.342V648.384H539.104C538.768 651.597 535.912 654.096 531.355 655.335L532.048 656.721C536.08 655.587 538.999 653.445 540.259 650.484H544.858V653.067H539.986V654.474H544.858V656.952H546.601V645.717H544.858ZM568.158 649.602C568.158 651.933 568.158 654.747 567.402 658.59L569.124 658.779C569.859 654.705 569.859 651.996 569.859 649.602V647.712H556.944V649.119H568.158V649.602ZM555.117 660.375V661.803H572.148V660.375H555.117ZM577.229 654.18H584.18V647.46H575.444V648.867H582.437V652.794H575.507V660.018H577.061C580.295 660.018 583.151 659.892 586.553 659.325L586.385 657.918C583.088 658.443 580.316 658.59 577.229 658.59V654.18ZM588.149 645.696V664.575H589.871V645.696H588.149ZM607.026 649.476C607.026 651.744 607.026 654.39 606.312 658.002L608.034 658.191C608.748 654.39 608.748 651.807 608.748 649.476V647.607H595.539V649.014H607.026V649.476ZM602.091 660.501V653.76H600.369V660.501H593.754V661.908H610.785V660.501H602.091ZM620.289 654.096H626.925V652.71H620.289V648.825H627.345V647.418H618.567V660.018H620.037C623.586 660.018 626.022 659.892 628.92 659.388L628.752 658.002C625.98 658.464 623.628 658.611 620.289 658.611V654.096ZM635.346 653.277H632.238V645.717H630.516V664.533H632.238V654.726H635.346V653.277ZM652.522 645.738H650.8V659.493H652.522V645.738ZM639.187 651.66C639.187 649.833 640.573 648.531 642.4 648.531C644.269 648.531 645.655 649.833 645.655 651.66C645.655 653.529 644.269 654.831 642.4 654.831C640.573 654.831 639.187 653.529 639.187 651.66ZM647.335 651.66C647.335 648.951 645.214 647.04 642.4 647.04C639.607 647.04 637.507 648.951 637.507 651.66C637.507 654.39 639.607 656.322 642.4 656.322C645.214 656.322 647.335 654.39 647.335 651.66ZM642.127 662.727V658.086H640.405V664.134H653.089V662.727H642.127ZM664.889 647.334C667.976 647.334 669.74 648.048 669.74 649.308C669.74 650.568 667.976 651.282 664.889 651.282C661.802 651.282 660.038 650.568 660.038 649.308C660.038 648.048 661.802 647.334 664.889 647.334ZM664.889 652.563C669.026 652.563 671.504 651.429 671.504 649.308C671.504 647.187 669.026 646.032 664.889 646.032C660.752 646.032 658.274 647.187 658.274 649.308C658.274 651.429 660.752 652.563 664.889 652.563ZM660.164 661.089H671.231V656.847H658.421V658.149H669.53V659.829H658.484V664.344H671.798V663H660.164V661.089ZM656.363 653.844V655.23H673.415V653.844H656.363ZM686.657 658.443H682.709V653.466H686.657V658.443ZM686.657 652.101H682.709V647.502H681.071V659.829H688.274V647.502H686.657V652.101ZM694.763 645.717V653.172H692.222V646.137H690.605V663.63H692.222V654.579H694.763V664.554H696.401V645.717H694.763ZM702.111 654.159H708.6V647.418H700.368V648.804H706.899V652.752H700.41V660.186H701.838C704.778 660.186 707.193 660.081 710.154 659.619L710.007 658.191C707.193 658.632 704.883 658.758 702.111 658.758V654.159ZM713.493 645.696V650.001H709.776V651.408H713.493V655.167H709.65V656.574H713.493V664.575H715.215V645.696H713.493ZM724.559 658.926C722.858 658.926 721.619 657.708 721.619 656.028C721.619 654.327 722.858 653.109 724.559 653.109C726.281 653.109 727.52 654.327 727.52 656.028C727.52 657.708 726.281 658.926 724.559 658.926ZM724.559 651.681C721.913 651.681 720.002 653.487 720.002 656.028C720.002 658.59 721.913 660.354 724.559 660.354C727.247 660.354 729.158 658.59 729.158 656.028C729.158 653.487 727.247 651.681 724.559 651.681ZM725.399 645.948H723.677V648.741H718.931V650.127H730.04V648.741H725.399V645.948ZM736.634 653.466H733.547V645.738H731.825V664.554H733.547V654.915H736.634V653.466ZM753.453 651.387H742.365V646.41H740.643V652.794H753.453V651.387ZM742.239 658.59H740.517V664.092H753.558V662.685H742.239V658.59ZM738.333 655.314V656.7H755.406V655.314H738.333ZM770.74 648.657H780.379V654.768H770.74V648.657ZM776.452 660.711V656.133H782.059V647.292H769.081V656.133H774.709V660.711H767.065V662.139H784.138V660.711H776.452ZM802.449 651.597C799.11 651.177 795.792 649.098 795.792 646.767V645.927H794.028V646.767C794.028 649.161 790.731 651.177 787.35 651.597L787.98 652.983C790.92 652.521 793.734 651.051 794.91 648.951C796.107 651.051 798.9 652.521 801.819 652.983L802.449 651.597ZM799.488 662.916H790.227V660.522H799.488V662.916ZM799.488 659.199H790.227V656.994H788.526V664.302H801.189V656.994H799.488V659.199ZM786.363 654.306V655.692H803.415V654.306H786.363ZM814.207 647.334C817.294 647.334 819.058 648.048 819.058 649.308C819.058 650.568 817.294 651.282 814.207 651.282C811.12 651.282 809.356 650.568 809.356 649.308C809.356 648.048 811.12 647.334 814.207 647.334ZM814.207 652.563C818.344 652.563 820.822 651.429 820.822 649.308C820.822 647.187 818.344 646.032 814.207 646.032C810.07 646.032 807.592 647.187 807.592 649.308C807.592 651.429 810.07 652.563 814.207 652.563ZM809.482 661.089H820.549V656.847H807.739V658.149H818.848V659.829H807.802V664.344H821.116V663H809.482V661.089ZM805.681 653.844V655.23H822.733V653.844H805.681ZM840.616 653.277C838.159 653.76 836.017 653.907 832.3 653.907V648.363H838.873V646.977H830.578V655.335H832.048C835.996 655.335 838.222 655.188 840.805 654.663L840.616 653.277ZM834.19 658.758H842.632V662.895H834.19V658.758ZM832.51 664.281H844.333V657.393H832.51V664.281ZM847.126 650.316H844.333V645.696H842.611V656.385H844.333V651.744H847.126V650.316ZM854.054 658.779C852.227 658.779 850.946 656.805 850.946 653.739C850.946 650.694 852.227 648.72 854.054 648.72C855.86 648.72 857.141 650.694 857.141 653.739C857.141 656.805 855.86 658.779 854.054 658.779ZM854.054 647.166C851.282 647.166 849.308 649.728 849.308 653.739C849.308 657.75 851.282 660.312 854.054 660.312C856.826 660.312 858.779 657.75 858.779 653.739C858.779 649.728 856.826 647.166 854.054 647.166ZM866.633 653.235H863.525V645.738H861.803V664.554H863.525V654.684H866.633V653.235ZM326.946 702.611H321.57V697.655H326.946V702.611ZM326.946 696.29H321.57V691.313H319.869V704.018H328.626V691.313H326.946V696.29ZM336.711 697.13H333.603V689.738H331.881V708.533H333.603V698.579H336.711V697.13ZM340.951 692.951H347.986V691.523H339.229V703.892H340.72C344.269 703.892 346.747 703.766 349.624 703.22L349.435 701.792C346.705 702.275 344.29 702.422 340.951 702.422V692.951ZM356.029 697.151H352.921V689.717H351.199V708.596H352.921V698.579H356.029V697.151ZM364.26 694.358H368.439V692.972H364.26V690.053H362.538V692.972H358.296V694.358H362.559V695.807C362.559 699.062 360.543 702.275 357.771 703.598L358.737 704.921C360.879 703.871 362.622 701.687 363.42 699.062C364.26 701.54 366.003 703.577 368.145 704.564L369.09 703.241C366.318 702.002 364.26 698.936 364.26 695.807V694.358ZM371.547 689.696V697.277H367.473V698.684H371.547V708.596H373.269V689.696H371.547ZM387.694 698.075C384.901 698.516 382.591 698.621 379.546 698.621V695.912H386.161V690.683H377.803V692.069H384.481V694.589H377.866V700.028H379.294C382.528 700.028 384.922 699.944 387.841 699.482L387.694 698.075ZM381.94 703.199H390.886V706.916H381.94V703.199ZM380.26 708.302H392.587V701.813H380.26V708.302ZM390.844 689.738V693.938H387.358V695.345H390.844V700.805H392.587V689.738H390.844ZM404.8 695.828H414.418V699.293H404.8V695.828ZM410.47 704.732V700.679H416.098V691.061H414.418V694.421H404.8V691.061H403.099V700.679H408.727V704.732H401.083V706.139H418.156V704.732H410.47ZM422.291 704.228H433.61V708.554H435.332V702.821H422.291V704.228ZM426.554 691.796H431.237V695.891H426.554V691.796ZM429.788 699.566V697.298H435.731V695.891H432.959V691.796H435.815V690.389H421.997V691.796H424.832V695.891H422.039V697.298H428.066V699.566H420.401V700.952H437.432V699.566H429.788ZM453.411 689.717V708.596H455.133V689.717H453.411ZM445.2 691.166C442.407 691.166 440.412 693.728 440.412 697.739C440.412 701.75 442.407 704.312 445.2 704.312C447.993 704.312 449.988 701.75 449.988 697.739C449.988 693.728 447.993 691.166 445.2 691.166ZM445.2 692.72C447.027 692.72 448.329 694.694 448.329 697.739C448.329 700.805 447.027 702.779 445.2 702.779C443.352 702.779 442.05 700.805 442.05 697.739C442.05 694.694 443.352 692.72 445.2 692.72ZM467.598 702.254H465.876V708.134H479.001V706.727H467.598V702.254ZM478.098 698.999C478.623 696.164 478.623 694.127 478.623 692.342V690.725H465.897V692.111H476.922V692.342C476.922 692.993 476.922 693.707 476.88 694.484L465.435 694.862L465.666 696.269L476.817 695.765C476.733 696.731 476.607 697.802 476.355 698.999H463.713V700.406H480.828V698.999H478.098ZM494.07 691.355H492.369V694.736C492.369 698.159 490.227 701.771 487.518 703.157L488.547 704.543C490.668 703.409 492.411 701.057 493.23 698.306C494.091 700.889 495.792 703.094 497.787 704.165L498.858 702.8C496.212 701.477 494.07 698.054 494.07 694.736V691.355ZM505.347 697.361H502.239V689.738H500.517V708.554H502.239V698.789H505.347V697.361ZM518.155 697.949C515.299 698.453 512.884 698.558 509.587 698.558V695.891H516.328V690.746H507.844V692.153H514.627V694.568H507.886V699.965H509.377C512.842 699.965 515.341 699.86 518.323 699.356L518.155 697.949ZM511.498 703.241H520.003V706.916H511.498V703.241ZM509.818 708.302H521.683V701.876H509.818V708.302ZM524.476 694.547H521.683V689.738H519.961V700.952H521.683V695.975H524.476V694.547ZM540.077 689.717V708.596H541.799V689.717H540.077ZM531.866 691.166C529.073 691.166 527.078 693.728 527.078 697.739C527.078 701.75 529.073 704.312 531.866 704.312C534.659 704.312 536.654 701.75 536.654 697.739C536.654 693.728 534.659 691.166 531.866 691.166ZM531.866 692.72C533.693 692.72 534.995 694.694 534.995 697.739C534.995 700.805 533.693 702.779 531.866 702.779C530.018 702.779 528.716 700.805 528.716 697.739C528.716 694.694 530.018 692.72 531.866 692.72ZM557.477 699.251H561.53V697.844H553.613V692.909H561.446V691.481H551.912V699.251H555.755V702.989C553.928 703.052 552.143 703.052 550.526 703.052L550.736 704.501C554.306 704.501 558.821 704.417 562.937 703.787L562.79 702.527C561.11 702.737 559.283 702.842 557.477 702.926V699.251ZM564.029 689.696V708.596H565.751V689.696H564.029ZM583.011 693.476C583.011 695.744 583.011 698.39 582.297 702.002L584.019 702.191C584.733 698.39 584.733 695.807 584.733 693.476V691.607H571.524V693.014H583.011V693.476ZM578.076 704.501V697.76H576.354V704.501H569.739V705.908H586.77V704.501H578.076ZM595.379 693.077H599.558V691.649H589.373V693.077H593.678V695.471C593.678 698.663 591.41 702.233 588.722 703.577L589.73 704.942C591.851 703.85 593.678 701.456 594.539 698.705C595.4 701.225 597.164 703.43 599.264 704.48L600.251 703.094C597.521 701.813 595.379 698.474 595.379 695.471V693.077ZM606.635 697.319H603.527V689.738H601.805V708.554H603.527V698.768H606.635V697.319ZM615.97 692.951H623.173V691.502H614.269V703.913H615.781C619.582 703.913 622.039 703.787 624.937 703.262L624.748 701.813C621.976 702.338 619.603 702.443 615.97 702.443V692.951ZM626.743 689.717V708.596H628.465V689.717H626.743ZM638.712 693.077H642.891V691.649H632.706V693.077H637.011V695.471C637.011 698.663 634.743 702.233 632.055 703.577L633.063 704.942C635.184 703.85 637.011 701.456 637.872 698.705C638.733 701.225 640.497 703.43 642.597 704.48L643.584 703.094C640.854 701.813 638.712 698.474 638.712 695.471V693.077ZM649.968 697.319H646.86V689.738H645.138V708.554H646.86V698.768H649.968V697.319ZM667.144 689.738H665.422V703.493H667.144V689.738ZM653.809 695.66C653.809 693.833 655.195 692.531 657.022 692.531C658.891 692.531 660.277 693.833 660.277 695.66C660.277 697.529 658.891 698.831 657.022 698.831C655.195 698.831 653.809 697.529 653.809 695.66ZM661.957 695.66C661.957 692.951 659.836 691.04 657.022 691.04C654.229 691.04 652.129 692.951 652.129 695.66C652.129 698.39 654.229 700.322 657.022 700.322C659.836 700.322 661.957 698.39 661.957 695.66ZM656.749 706.727V702.086H655.027V708.134H667.711V706.727H656.749ZM682.872 696.311H685.245V701.393H686.904V689.738H685.245V694.904H682.872V690.011H681.255V701.099H682.872V696.311ZM680.478 691.88H676.551V689.822H674.85V691.88H670.902V693.245H680.457L680.478 691.88ZM675.711 695.471C677.181 695.471 678.189 696.248 678.189 697.424C678.189 698.6 677.181 699.356 675.711 699.356C674.22 699.356 673.233 698.6 673.233 697.424C673.233 696.248 674.22 695.471 675.711 695.471ZM675.711 700.637C678.084 700.637 679.722 699.356 679.722 697.424C679.722 695.471 678.084 694.19 675.711 694.19C673.338 694.19 671.679 695.471 671.679 697.424C671.679 699.356 673.338 700.637 675.711 700.637ZM684.594 701.939H682.893V702.59C682.893 703.976 682.011 705.782 680.247 706.832C678.504 705.866 677.643 704.186 677.643 702.59V701.939H675.984V702.59C675.984 704.312 674.556 706.244 672.204 707.042L673.002 708.323C674.808 707.672 676.11 706.433 676.803 704.963C677.37 706.496 678.483 707.819 680.289 708.491C682.032 707.777 683.166 706.391 683.733 704.9C684.363 706.433 685.686 707.672 687.576 708.323L688.374 707.042C686.001 706.286 684.594 704.438 684.594 702.59V701.939ZM706.39 695.597C703.051 695.177 699.733 693.098 699.733 690.767V689.927H697.969V690.767C697.969 693.161 694.672 695.177 691.291 695.597L691.921 696.983C694.861 696.521 697.675 695.051 698.851 692.951C700.048 695.051 702.841 696.521 705.76 696.983L706.39 695.597ZM703.429 706.916H694.168V704.522H703.429V706.916ZM703.429 703.199H694.168V700.994H692.467V708.302H705.13V700.994H703.429V703.199ZM690.304 698.306V699.692H707.356V698.306H690.304ZM712.541 691.544H710.819V703.682H712.373C715.376 703.682 718.337 703.472 721.613 702.8L721.424 701.33C718.295 701.96 715.376 702.212 712.541 702.212V691.544ZM723.356 689.717V708.533H725.078V689.717H723.356ZM731.482 692.951H738.517V691.523H729.76V703.892H731.251C734.8 703.892 737.278 703.766 740.155 703.22L739.966 701.792C737.236 702.275 734.821 702.422 731.482 702.422V692.951ZM746.56 697.151H743.452V689.717H741.73V708.596H743.452V698.579H746.56V697.151ZM750.086 707.273C750.842 707.273 751.472 706.685 751.472 705.824C751.472 704.942 750.842 704.333 750.086 704.333C749.33 704.333 748.7 704.942 748.7 705.824C748.7 706.685 749.33 707.273 750.086 707.273Z" fill="white"/>
<path d="M320.09 427V426.45H320.805C321.795 426.45 322.62 426.303 323.28 426.01C323.977 425.717 324.49 425.277 324.82 424.69C325.15 424.103 325.315 423.37 325.315 422.49V392.02C325.315 391.177 325.15 390.48 324.82 389.93C324.49 389.38 323.977 388.977 323.28 388.72C322.62 388.427 321.795 388.28 320.805 388.28H320.09V387.73H336.095V388.28H335.38C334.39 388.28 333.547 388.427 332.85 388.72C332.19 389.013 331.695 389.453 331.365 390.04C331.035 390.627 330.87 391.36 330.87 392.24V426.45H341.045C342.988 426.45 344.528 426.175 345.665 425.625C346.838 425.038 347.7 424.048 348.25 422.655C348.8 421.262 349.148 419.373 349.295 416.99L349.405 415.175H349.955L349.57 427H320.09ZM368.053 427.55C364.093 427.55 360.976 426.285 358.703 423.755C356.429 421.225 355.293 417.375 355.293 412.205C355.293 407.072 356.374 403.258 358.538 400.765C360.738 398.235 363.964 396.97 368.218 396.97C372.178 396.97 375.294 398.235 377.568 400.765C379.841 403.258 380.978 407.072 380.978 412.205C380.978 417.375 379.878 421.225 377.678 423.755C375.514 426.285 372.306 427.55 368.053 427.55ZM368.163 427C369.959 427 371.408 426.505 372.508 425.515C373.608 424.525 374.396 422.948 374.873 420.785C375.386 418.622 375.643 415.762 375.643 412.205C375.643 408.685 375.386 405.843 374.873 403.68C374.396 401.517 373.608 399.958 372.508 399.005C371.408 398.015 369.941 397.52 368.108 397.52C366.311 397.52 364.863 398.015 363.763 399.005C362.663 399.958 361.856 401.517 361.343 403.68C360.866 405.843 360.628 408.685 360.628 412.205C360.628 415.762 360.866 418.622 361.343 420.785C361.856 422.948 362.663 424.525 363.763 425.515C364.899 426.505 366.366 427 368.163 427ZM396.716 440.2C392.902 440.2 390.042 439.503 388.136 438.11C386.229 436.753 385.276 434.938 385.276 432.665C385.276 431.382 385.569 430.263 386.156 429.31C386.742 428.393 387.641 427.66 388.851 427.11C390.061 426.56 391.582 426.285 393.416 426.285C391.986 425.845 390.904 425.13 390.171 424.14C389.474 423.15 389.126 422.105 389.126 421.005C389.126 419.942 389.474 418.933 390.171 417.98C390.904 416.99 392.022 416.238 393.526 415.725C391.766 415.102 390.354 414.075 389.291 412.645C388.264 411.178 387.751 409.345 387.751 407.145C387.751 403.992 388.612 401.517 390.336 399.72C392.059 397.887 394.644 396.97 398.091 396.97C399.374 396.97 400.529 397.135 401.556 397.465C402.582 397.758 403.499 398.198 404.306 398.785C404.856 398.198 405.589 397.557 406.506 396.86C407.422 396.163 408.504 395.815 409.751 395.815C410.814 395.815 411.602 396.108 412.116 396.695C412.666 397.245 412.941 397.923 412.941 398.73C412.941 399.463 412.702 400.068 412.226 400.545C411.786 401.022 411.052 401.26 410.026 401.26C410.026 400.087 409.824 399.225 409.421 398.675C409.054 398.125 408.449 397.85 407.606 397.85C407.129 397.85 406.689 397.942 406.286 398.125C405.882 398.272 405.369 398.602 404.746 399.115C405.809 399.995 406.616 401.113 407.166 402.47C407.716 403.827 407.991 405.33 407.991 406.98C407.991 409.693 407.166 411.948 405.516 413.745C403.902 415.542 401.427 416.44 398.091 416.44C397.394 416.44 396.716 416.403 396.056 416.33C395.432 416.22 394.827 416.092 394.241 415.945C393.361 416.312 392.756 416.752 392.426 417.265C392.096 417.778 391.931 418.347 391.931 418.97C391.931 419.923 392.261 420.62 392.921 421.06C393.617 421.5 394.644 421.72 396.001 421.72H402.216C405.479 421.72 407.807 422.49 409.201 424.03C410.594 425.57 411.291 427.532 411.291 429.915C411.291 433.068 410.099 435.562 407.716 437.395C405.369 439.265 401.702 440.2 396.716 440.2ZM397.156 439.65C400.639 439.65 403.206 439.008 404.856 437.725C406.506 436.478 407.331 434.627 407.331 432.17C407.331 430.263 406.817 428.852 405.791 427.935C404.801 427.055 403.261 426.615 401.171 426.615H395.231C394.241 426.615 393.287 426.798 392.371 427.165C391.491 427.532 390.757 428.173 390.171 429.09C389.621 430.007 389.346 431.272 389.346 432.885C389.346 434.388 389.657 435.635 390.281 436.625C390.904 437.652 391.784 438.403 392.921 438.88C394.094 439.393 395.506 439.65 397.156 439.65ZM397.926 415.89C399.136 415.89 400.089 415.578 400.786 414.955C401.519 414.332 402.032 413.36 402.326 412.04C402.656 410.72 402.821 409.033 402.821 406.98C402.821 404.817 402.656 403.038 402.326 401.645C401.996 400.252 401.464 399.225 400.731 398.565C400.034 397.868 399.081 397.52 397.871 397.52C396.697 397.52 395.744 397.887 395.011 398.62C394.277 399.317 393.746 400.362 393.416 401.755C393.086 403.148 392.921 404.908 392.921 407.035C392.921 409.052 393.086 410.72 393.416 412.04C393.782 413.36 394.332 414.332 395.066 414.955C395.799 415.578 396.752 415.89 397.926 415.89ZM429.39 427.55C425.43 427.55 422.314 426.285 420.04 423.755C417.767 421.225 416.63 417.375 416.63 412.205C416.63 407.072 417.712 403.258 419.875 400.765C422.075 398.235 425.302 396.97 429.555 396.97C433.515 396.97 436.632 398.235 438.905 400.765C441.179 403.258 442.315 407.072 442.315 412.205C442.315 417.375 441.215 421.225 439.015 423.755C436.852 426.285 433.644 427.55 429.39 427.55ZM429.5 427C431.297 427 432.745 426.505 433.845 425.515C434.945 424.525 435.734 422.948 436.21 420.785C436.724 418.622 436.98 415.762 436.98 412.205C436.98 408.685 436.724 405.843 436.21 403.68C435.734 401.517 434.945 399.958 433.845 399.005C432.745 398.015 431.279 397.52 429.445 397.52C427.649 397.52 426.2 398.015 425.1 399.005C424 399.958 423.194 401.517 422.68 403.68C422.204 405.843 421.965 408.685 421.965 412.205C421.965 415.762 422.204 418.622 422.68 420.785C423.194 422.948 424 424.525 425.1 425.515C426.237 426.505 427.704 427 429.5 427ZM459.792 427V426.45H460.507C461.497 426.45 462.322 426.303 462.982 426.01C463.679 425.717 464.192 425.277 464.522 424.69C464.852 424.103 465.017 423.37 465.017 422.49V392.02C465.017 391.177 464.852 390.48 464.522 389.93C464.192 389.38 463.679 388.977 462.982 388.72C462.322 388.427 461.497 388.28 460.507 388.28H459.792V387.73H476.622C480.399 387.73 483.625 388.5 486.302 390.04C488.979 391.543 491.014 393.762 492.407 396.695C493.837 399.592 494.552 403.13 494.552 407.31C494.552 411.307 493.874 414.79 492.517 417.76C491.197 420.693 489.217 422.967 486.577 424.58C483.937 426.193 480.619 427 476.622 427H459.792ZM475.357 426.45C478.437 426.45 480.93 425.79 482.837 424.47C484.78 423.15 486.192 421.078 487.072 418.255C487.989 415.432 488.447 411.783 488.447 407.31C488.447 402.873 487.989 399.262 487.072 396.475C486.192 393.652 484.78 391.58 482.837 390.26C480.93 388.94 478.455 388.28 475.412 388.28H470.572V426.45H475.357ZM513.723 427.55C509.616 427.55 506.408 426.23 504.098 423.59C501.825 420.95 500.688 417.247 500.688 412.48C500.688 407.347 501.751 403.478 503.878 400.875C506.005 398.272 509.011 396.97 512.898 396.97C516.455 396.97 519.241 398.07 521.258 400.27C523.311 402.47 524.338 405.752 524.338 410.115V411.435H506.023C506.06 415.175 506.335 418.182 506.848 420.455C507.361 422.728 508.186 424.397 509.323 425.46C510.496 426.487 512.018 427 513.888 427C515.281 427 516.51 426.743 517.573 426.23C518.673 425.717 519.59 424.965 520.323 423.975C521.056 422.948 521.551 421.702 521.808 420.235C522.248 420.308 522.578 420.528 522.798 420.895C523.018 421.262 523.128 421.647 523.128 422.05C523.128 422.783 522.78 423.59 522.083 424.47C521.386 425.313 520.341 426.047 518.948 426.67C517.591 427.257 515.85 427.55 513.723 427.55ZM518.783 410.885C518.783 407.658 518.581 405.073 518.178 403.13C517.775 401.187 517.133 399.775 516.253 398.895C515.373 397.978 514.218 397.52 512.788 397.52C511.285 397.52 510.056 397.978 509.103 398.895C508.15 399.775 507.435 401.187 506.958 403.13C506.481 405.073 506.17 407.658 506.023 410.885H518.783ZM538.867 427.55C537.033 427.55 535.42 427.33 534.027 426.89C532.633 426.45 531.533 425.808 530.727 424.965C529.957 424.085 529.572 423.003 529.572 421.72C529.572 420.73 529.773 419.96 530.177 419.41C530.58 418.86 531.038 418.475 531.552 418.255C532.102 418.035 532.597 417.925 533.037 417.925C533.037 419.905 533.22 421.573 533.587 422.93C533.953 424.25 534.577 425.258 535.457 425.955C536.337 426.652 537.51 427 538.977 427C540.92 427 542.46 426.505 543.597 425.515C544.733 424.488 545.302 422.985 545.302 421.005C545.302 419.722 545.082 418.713 544.642 417.98C544.202 417.21 543.468 416.532 542.442 415.945C541.452 415.358 540.058 414.68 538.262 413.91C536.172 412.993 534.522 412.113 533.312 411.27C532.102 410.39 531.24 409.437 530.727 408.41C530.213 407.383 529.957 406.173 529.957 404.78C529.957 402.287 530.837 400.38 532.597 399.06C534.357 397.703 536.795 397.025 539.912 397.025C541.672 397.025 543.175 397.263 544.422 397.74C545.705 398.18 546.677 398.785 547.337 399.555C547.997 400.325 548.327 401.168 548.327 402.085C548.327 403.075 547.978 403.882 547.282 404.505C546.622 405.092 545.65 405.385 544.367 405.385C544.367 402.562 543.982 400.563 543.212 399.39C542.442 398.18 541.25 397.575 539.637 397.575C538.39 397.575 537.345 397.777 536.502 398.18C535.695 398.583 535.072 399.17 534.632 399.94C534.228 400.71 534.027 401.682 534.027 402.855C534.027 404.138 534.283 405.165 534.797 405.935C535.31 406.705 536.098 407.365 537.162 407.915C538.262 408.465 539.618 409.088 541.232 409.785C543.322 410.628 544.972 411.49 546.182 412.37C547.392 413.213 548.235 414.167 548.712 415.23C549.225 416.257 549.482 417.485 549.482 418.915C549.482 421.775 548.528 423.938 546.622 425.405C544.715 426.835 542.13 427.55 538.867 427.55ZM553.176 427V426.45H553.891C554.991 426.45 555.871 426.303 556.531 426.01C557.191 425.717 557.668 425.258 557.961 424.635C558.254 424.012 558.401 423.205 558.401 422.215V402.36C558.401 401.333 558.254 400.508 557.961 399.885C557.668 399.262 557.191 398.803 556.531 398.51C555.871 398.217 554.991 398.07 553.891 398.07H553.726V397.52H563.571V421.94C563.571 423.04 563.718 423.92 564.011 424.58C564.304 425.24 564.781 425.717 565.441 426.01C566.138 426.303 567.018 426.45 568.081 426.45H568.796V427H553.176ZM560.711 392.24C560.014 392.24 559.428 392.02 558.951 391.58C558.511 391.103 558.291 390.297 558.291 389.16C558.291 387.987 558.511 387.18 558.951 386.74C559.428 386.3 560.014 386.08 560.711 386.08C561.371 386.08 561.939 386.3 562.416 386.74C562.893 387.18 563.131 387.987 563.131 389.16C563.131 390.297 562.893 391.103 562.416 391.58C561.939 392.02 561.371 392.24 560.711 392.24ZM582.233 440.2C578.42 440.2 575.56 439.503 573.653 438.11C571.747 436.753 570.793 434.938 570.793 432.665C570.793 431.382 571.087 430.263 571.673 429.31C572.26 428.393 573.158 427.66 574.368 427.11C575.578 426.56 577.1 426.285 578.933 426.285C577.503 425.845 576.422 425.13 575.688 424.14C574.992 423.15 574.643 422.105 574.643 421.005C574.643 419.942 574.992 418.933 575.688 417.98C576.422 416.99 577.54 416.238 579.043 415.725C577.283 415.102 575.872 414.075 574.808 412.645C573.782 411.178 573.268 409.345 573.268 407.145C573.268 403.992 574.13 401.517 575.853 399.72C577.577 397.887 580.162 396.97 583.608 396.97C584.892 396.97 586.047 397.135 587.073 397.465C588.1 397.758 589.017 398.198 589.823 398.785C590.373 398.198 591.107 397.557 592.023 396.86C592.94 396.163 594.022 395.815 595.268 395.815C596.332 395.815 597.12 396.108 597.633 396.695C598.183 397.245 598.458 397.923 598.458 398.73C598.458 399.463 598.22 400.068 597.743 400.545C597.303 401.022 596.57 401.26 595.543 401.26C595.543 400.087 595.342 399.225 594.938 398.675C594.572 398.125 593.967 397.85 593.123 397.85C592.647 397.85 592.207 397.942 591.803 398.125C591.4 398.272 590.887 398.602 590.263 399.115C591.327 399.995 592.133 401.113 592.683 402.47C593.233 403.827 593.508 405.33 593.508 406.98C593.508 409.693 592.683 411.948 591.033 413.745C589.42 415.542 586.945 416.44 583.608 416.44C582.912 416.44 582.233 416.403 581.573 416.33C580.95 416.22 580.345 416.092 579.758 415.945C578.878 416.312 578.273 416.752 577.943 417.265C577.613 417.778 577.448 418.347 577.448 418.97C577.448 419.923 577.778 420.62 578.438 421.06C579.135 421.5 580.162 421.72 581.518 421.72H587.733C590.997 421.72 593.325 422.49 594.718 424.03C596.112 425.57 596.808 427.532 596.808 429.915C596.808 433.068 595.617 435.562 593.233 437.395C590.887 439.265 587.22 440.2 582.233 440.2ZM582.673 439.65C586.157 439.65 588.723 439.008 590.373 437.725C592.023 436.478 592.848 434.627 592.848 432.17C592.848 430.263 592.335 428.852 591.308 427.935C590.318 427.055 588.778 426.615 586.688 426.615H580.748C579.758 426.615 578.805 426.798 577.888 427.165C577.008 427.532 576.275 428.173 575.688 429.09C575.138 430.007 574.863 431.272 574.863 432.885C574.863 434.388 575.175 435.635 575.798 436.625C576.422 437.652 577.302 438.403 578.438 438.88C579.612 439.393 581.023 439.65 582.673 439.65ZM583.443 415.89C584.653 415.89 585.607 415.578 586.303 414.955C587.037 414.332 587.55 413.36 587.843 412.04C588.173 410.72 588.338 409.033 588.338 406.98C588.338 404.817 588.173 403.038 587.843 401.645C587.513 400.252 586.982 399.225 586.248 398.565C585.552 397.868 584.598 397.52 583.388 397.52C582.215 397.52 581.262 397.887 580.528 398.62C579.795 399.317 579.263 400.362 578.933 401.755C578.603 403.148 578.438 404.908 578.438 407.035C578.438 409.052 578.603 410.72 578.933 412.04C579.3 413.36 579.85 414.332 580.583 414.955C581.317 415.578 582.27 415.89 583.443 415.89ZM600.663 427V426.45H601.103C602.24 426.45 603.138 426.303 603.798 426.01C604.458 425.68 604.916 425.148 605.173 424.415C605.466 423.682 605.613 422.673 605.613 421.39V403.02C605.613 401.773 605.466 400.802 605.173 400.105C604.916 399.372 604.476 398.858 603.853 398.565C603.23 398.235 602.35 398.07 601.213 398.07H600.938V397.52H610.728V402.69H610.838C611.351 400.967 612.066 399.702 612.983 398.895C613.9 398.088 614.89 397.575 615.953 397.355C617.053 397.098 618.061 396.97 618.978 396.97C622.241 396.97 624.661 397.832 626.238 399.555C627.851 401.242 628.658 403.973 628.658 407.75V421.39C628.658 422.673 628.786 423.682 629.043 424.415C629.3 425.148 629.721 425.68 630.308 426.01C630.931 426.303 631.756 426.45 632.783 426.45H633.058V427H623.488V405.88C623.488 403.497 623.048 401.553 622.168 400.05C621.288 398.547 619.766 397.795 617.603 397.795C615.88 397.795 614.523 398.253 613.533 399.17C612.543 400.087 611.828 401.278 611.388 402.745C610.985 404.175 610.783 405.678 610.783 407.255V421.39C610.783 422.673 610.911 423.682 611.168 424.415C611.461 425.148 611.92 425.68 612.543 426.01C613.203 426.303 614.083 426.45 615.183 426.45H615.458V427H600.663Z" fill="white"/>
<line x1="1158" y1="85.5" x2="1226" y2="85.5" stroke="white"/>
<rect x="0.5" y="0.5" width="1919" height="1079" stroke="black"/>
<defs>
<filter id="filter0_d_144:1050" x="1040" y="325" width="584" height="530" filterUnits="userSpaceOnUse" color-interpolation-filters="sRGB">
<feFlood flood-opacity="0" result="BackgroundImageFix"/>
<feColorMatrix in="SourceAlpha" type="matrix" values="0 0 0 0 0 0 0 0 0 0 0 0 0 0 0 0 0 0 127 0" result="hardAlpha"/>
<feOffset dx="15" dy="20"/>
<feGaussianBlur stdDeviation="5"/>
<feComposite in2="hardAlpha" operator="out"/>
<feColorMatrix type="matrix" values="0 0 0 0 0.172549 0 0 0 0 0.243137 0 0 0 0 0.313726 0 0 0 0.25 0"/>
<feBlend mode="normal" in2="BackgroundImageFix" result="effect1_dropShadow_144:1050"/>
<feBlend mode="normal" in="SourceGraphic" in2="effect1_dropShadow_144:1050" result="shape"/>
</filter>
<linearGradient id="paint0_linear_144:1050" x1="1319.5" y1="325" x2="1319.5" y2="825" gradientUnits="userSpaceOnUse">
<stop stop-color="#4CA1AF"/>
<stop offset="1" stop-color="#2C3E50"/>
</linearGradient>
</defs>
</svg>
